<svg xmlns="http://www.w3.org/2000/svg" width="480.5679543407519" height="208.08711670585907" version="1.1" viewBox="46.78 756.6 806.13 348.91">
 <defs>
  <clipPath id="clipPath2180">
   <path transform="translate(-272.01 -161.08)" d="m0 900h720v-900h-720z"/>
  </clipPath>
  <clipPath id="clipPath2182">
   <path transform="translate(-272.46 -161.36)" d="m0 900h720v-900h-720z"/>
  </clipPath>
  <clipPath id="clipPath2184">
   <path transform="translate(-266.76 -161.55)" d="m0 900h720v-900h-720z"/>
  </clipPath>
  <clipPath id="clipPath2190">
   <path transform="translate(-253.07 -168.54)" d="m0 900h720v-900h-720z"/>
  </clipPath>
  <clipPath id="clipPath2192">
   <path transform="translate(-267.6 -160.6)" d="m0 900h720v-900h-720z"/>
  </clipPath>
  <clipPath id="clipPath2194">
   <path transform="translate(-268.16 -159.95)" d="m0 900h720v-900h-720z"/>
  </clipPath>
  <clipPath id="clipPath2196">
   <path transform="translate(-269.13 -159.09)" d="m0 900h720v-900h-720z"/>
  </clipPath>
  <clipPath id="clipPath2198">
   <path transform="translate(-268.55 -159.51)" d="m0 900h720v-900h-720z"/>
  </clipPath>
  <clipPath id="clipPath2200">
   <path transform="translate(-265.84 -161.47)" d="m0 900h720v-900h-720z"/>
  </clipPath>
  <clipPath id="clipPath2202">
   <path transform="translate(-266.82 -160.99)" d="m0 900h720v-900h-720z"/>
  </clipPath>
  <clipPath id="clipPath2204">
   <path transform="translate(-268.15 -161.37)" d="m0 900h720v-900h-720z"/>
  </clipPath>
  <clipPath id="clipPath2206">
   <path transform="translate(-268.92 -161.47)" d="m0 900h720v-900h-720z"/>
  </clipPath>
  <clipPath id="clipPath2208">
   <path transform="translate(-268.58 -160.65)" d="m0 900h720v-900h-720z"/>
  </clipPath>
  <clipPath id="clipPath2210">
   <path transform="translate(-269.27 -160.83)" d="m0 900h720v-900h-720z"/>
  </clipPath>
  <clipPath id="clipPath2212">
   <path transform="translate(-269.3 -159.87)" d="m0 900h720v-900h-720z"/>
  </clipPath>
  <clipPath id="clipPath2214">
   <path transform="translate(-269.87 -160.28)" d="m0 900h720v-900h-720z"/>
  </clipPath>
  <clipPath id="clipPath2216">
   <path transform="translate(-269.74 -159.36)" d="m0 900h720v-900h-720z"/>
  </clipPath>
  <clipPath id="clipPath2218">
   <path transform="translate(-268.76 -160.34)" d="m0 900h720v-900h-720z"/>
  </clipPath>
  <clipPath id="clipPath2220">
   <path transform="translate(-267.18 -161.97)" d="m0 900h720v-900h-720z"/>
  </clipPath>
  <clipPath id="clipPath2222">
   <path transform="translate(-265.57 -160.85)" d="m0 900h720v-900h-720z"/>
  </clipPath>
  <clipPath id="clipPath2224">
   <path transform="translate(-263.19 -165.64)" d="m0 900h720v-900h-720z"/>
  </clipPath>
  <clipPath id="clipPath2226">
   <path transform="translate(-246.77 -159.54)" d="m0 900h720v-900h-720z"/>
  </clipPath>
  <clipPath id="clipPath2228">
   <path transform="translate(-240.27 -168.65)" d="m0 900h720v-900h-720z"/>
  </clipPath>
 </defs>
 <g>
  <path transform="matrix(9.9398 0 0 -9.9398 844.46 882.87)" d="m0 0c-0.623 1.002-1.5 1.788-2.423 2.519-0.212 0.827-0.984 1.233-1.834 1.249-0.114 0.228-0.231 0.45-0.351 0.674-0.101 0.187-0.204 0.373-0.309 0.557 0.546 0.032 1.094-3e-3 1.614-0.153 0.161-0.049 0.318-0.109 0.468-0.182 0.052-0.025 0.092 0.05 0.044 0.076-0.661 0.35-1.442 0.463-2.229 0.441-0.126 0.216-0.255 0.43-0.389 0.642 0.576 0.244 1.201 0.375 1.825 0.38 0.378 4e-3 0.756-0.034 1.126-0.108 0.03-6e-3 0.062 0.012 0.07 0.042s-0.01 0.06-0.041 0.068c-1.009 0.25-2.119 0.185-3.099-0.197-0.041 0.064-0.083 0.127-0.126 0.19 0.044 0.023 0.088 0.045 0.132 0.067 0.661 0.32 1.382 0.533 2.106 0.659 0.237 0.045 0.501 0.076 0.738 0.106 0.076 0.011 0.063 0.117-0.011 0.111-0.166-0.015-0.333-0.027-0.499-0.045-0.883-0.109-1.791-0.31-2.599-0.703-1e-3 1e-3 -1e-3 2e-3 -2e-3 3e-3 -0.151 0.195-0.327 0.367-0.519 0.522 0.138 0.066 0.278 0.129 0.421 0.187 0.406 0.16 0.834 0.297 1.262 0.389 0.249 0.06 0.53 0.105 0.782 0.145 0.032 4e-3 0.057 0.033 0.053 0.064s-0.033 0.052-0.065 0.048c-0.178-0.024-0.356-0.044-0.533-0.071-0.724-0.118-1.44-0.316-2.109-0.62-0.377 0.27-0.8 0.488-1.204 0.692-1.006 0.483-2.042 0.86-3.114 1.193-2.28 1.439-5.573 2.852-8.374 2.04l1e-3 -3e-3c-0.958 0.983-2.373 1.81-3.854 1.453-0.472-0.106-0.927-0.277-1.337-0.59-0.748-0.571-0.955-1.364-0.803-2.129-3.542-1.569-6.79-4.005-8.759-7.287-2.75-4.49-2.855-9.907-1.861-14.802 0.372-2.02 1.19-4.463 1.773-6.45l-0.278 2.934c-5e-3 0.072-7e-3 0.157-9e-3 0.236-8e-3 0.573 0.033 1.147 0.106 1.718 0.475 3.97 2.657 7.639 5.944 10.107-0.063-0.174-0.122-0.348-0.179-0.523-1.278-3.991-0.892-8.304 0.576-12.114 0.769-2.079 1.975-4.063 3.164-5.934-0.101 0.439-0.495 1.869-0.535 2.318-0.073 0.528-0.113 1.061-0.126 1.596-0.069 2.814 0.647 5.755 2.487 8.044 1.3 1.635 3.114 2.83 5.078 3.597 0.096-0.194 0.212-0.382 0.354-0.559 0.178-0.219 0.397-0.419 0.643-0.573 0.076-0.047 0.15-0.107 0.2-0.177 0.154-0.211 0.166-0.511 0.172-0.793 0.01-0.66-0.145-1.44 0.091-2.111-0.224-0.119-0.472-0.196-0.728-0.235-0.027-3e-3 -0.048-0.025-0.048-0.051 1e-3 -0.027 0.025-0.048 0.053-0.046 0.204 0.011 0.413 0.03 0.613 0.095 0.062 0.017 0.122 0.039 0.182 0.062 0.025-0.052 0.052-0.103 0.082-0.153 0.106-0.164 0.236-0.289 0.384-0.385-0.039-0.018-0.076-0.035-0.099-0.046-0.19-0.081-0.465-0.172-0.667-0.231-0.059-0.018-0.037-0.101 0.021-0.09l0.354 0.069c0.2 0.049 0.415 0.112 0.61 0.182 0.319-0.136 0.693-0.169 1.068-0.155-0.371-0.318-0.814-0.559-1.289-0.698-0.12-0.041-0.291-0.07-0.417-0.103-0.049-0.012-0.035-0.081 0.013-0.075l0.216 0.031c0.707 0.096 1.388 0.413 1.923 0.88 0.159 0.018 0.315 0.04 0.463 0.063 0.978 0.15 2.03 0.696 2.36 1.676 0.024 0.063 0.036 0.137 0.028 0.205-0.019 0.198-0.193 0.354-0.393 0.381 0 0-3e-3 1e-3 -7e-3 2e-3 0.987 0.07 1.554 0.362 1.936 0.555 0.462 0.233 0.34 0.506 0.017 0.435-0.176-0.039-0.612-0.065-0.974-0.081 0.298 0.153 0.546 0.317 0.705 0.463 0.528 0.487-0.462 0.293-1.148 0.134-0.325-0.076-0.857 0.025-1.327 0.153 0.013 0.103 0.033 0.211 0.06 0.32 0.192 0.767 0.535 1.489 0.838 2.247 0.21 0.547 0.47 1.118 0.451 1.717 0 5e-3 -1e-3 9e-3 -1e-3 0.014 0.162 0.231 0.387 0.435 0.636 0.609 0.817 0.556 1.963 0.9 2.973 0.925 0.555-0.197 1.095-0.44 1.62-0.71-0.35-0.536-0.969-1.462-1.14-1.588-0.243-0.179-0.505-0.648-0.202-0.614 0.261 0.03 1.753 1.051 2.378 1.626 0.02-0.012 0.039-0.023 0.059-0.034-0.298-0.48-0.906-1.444-1.081-1.603-0.234-0.213-0.554-0.627 0.041-0.378 0.456 0.191 1.281 0.988 1.734 1.555 0.038-0.024 0.075-0.047 0.113-0.071 0.347-0.253 0.846-0.243 1.182 0.053 0.081 0.064 0.131 0.155 0.203 0.225 0.103 0.092 0.26 0.129 0.401 0.125h-7e-3l0.193 0.015c0.666 0.161 1.44 0.548 1.657 1.22 0.867 0.578 0.814 1.538 0.302 2.367" clip-path="url(#clipPath2180)" fill="#ddc65e"/>
  <path transform="matrix(9.9398 0 0 -9.9398 848.89 880.09)" d="m0 0c-0.644 1.012-1.529 1.802-2.456 2.535-0.236 0.837-1.003 1.242-1.832 1.249-0.119 0.23-0.241 0.454-0.366 0.681-0.105 0.188-0.212 0.375-0.321 0.562 0.531 0.037 1.066 8e-3 1.579-0.138 0.159-0.048 0.314-0.108 0.463-0.18 0.052-0.025 0.088 0.051 0.04 0.078-0.657 0.348-1.423 0.454-2.189 0.422-0.13 0.219-0.264 0.435-0.402 0.648 0.553 0.254 1.157 0.395 1.766 0.407 0.368 8e-3 0.738-0.026 1.102-0.097 0.03-6e-3 0.06 0.013 0.067 0.043 7e-3 0.031-0.012 0.062-0.043 0.069-0.993 0.243-2.073 0.163-3.014-0.235-0.043 0.064-0.085 0.127-0.129 0.191 0.042 0.023 0.084 0.047 0.125 0.069 0.633 0.333 1.328 0.558 2.03 0.695 0.229 0.048 0.486 0.083 0.716 0.116 0.074 0.012 0.058 0.12-0.014 0.113-0.162-0.017-0.324-0.032-0.485-0.051-0.858-0.123-1.736-0.337-2.509-0.746-1e-3 1e-3 -2e-3 2e-3 -2e-3 3e-3 -0.154 0.197-0.331 0.369-0.524 0.524 0.132 0.069 0.266 0.134 0.403 0.195 0.389 0.167 0.802 0.311 1.215 0.411 0.242 0.063 0.514 0.112 0.758 0.156 0.031 5e-3 0.054 0.034 0.049 0.066-5e-3 0.031-0.034 0.052-0.065 0.048-0.172-0.027-0.345-0.049-0.517-0.079-0.701-0.128-1.392-0.338-2.032-0.655-0.377 0.27-0.796 0.485-1.197 0.688-0.995 0.477-2.014 0.847-3.067 1.171-2.263 1.429-5.501 2.816-8.173 1.956l1e-3 -3e-3c-0.961 0.981-2.353 1.798-3.765 1.415-0.449-0.113-0.88-0.292-1.261-0.613-0.696-0.586-0.864-1.389-0.69-2.158-3.332-1.625-6.339-4.112-8.087-7.426-2.438-4.521-2.324-9.936-1.19-14.818 0.432-2.014 1.304-4.448 1.934-6.428l-0.378 2.925c-7e-3 0.071-0.013 0.156-0.018 0.236-0.029 0.571-0.013 1.144 0.034 1.714 0.297 3.966 2.231 7.649 5.271 10.144-0.053-0.174-0.104-0.35-0.151-0.525-1.067-4.008-0.532-8.323 1.013-12.128 0.813-2.078 2.04-4.059 3.247-5.929-0.113 0.439-0.544 1.868-0.599 2.317-0.09 0.528-0.149 1.062-0.181 1.596-0.172 2.816 0.402 5.764 2.077 8.067 1.185 1.648 2.883 2.859 4.744 3.643 0.1-0.195 0.218-0.383 0.362-0.561 0.179-0.219 0.397-0.419 0.64-0.572 0.075-0.047 0.148-0.107 0.2-0.177 0.155-0.212 0.178-0.514 0.195-0.798 0.034-0.664-0.087-1.449 0.165-2.123-0.212-0.121-0.448-0.2-0.693-0.24-0.025-3e-3 -0.045-0.025-0.043-0.052 1e-3 -0.027 0.025-0.048 0.052-0.046 0.196 0.012 0.396 0.033 0.587 0.098 0.059 0.019 0.116 0.04 0.173 0.064 0.026-0.052 0.053-0.104 0.085-0.154 0.108-0.164 0.238-0.289 0.384-0.385-0.037-0.018-0.072-0.036-0.094-0.046-0.18-0.084-0.442-0.176-0.635-0.236-0.055-0.018-0.031-0.102 0.025-0.09l0.338 0.071c0.191 0.05 0.396 0.114 0.581 0.185 0.313-0.135 0.674-0.167 1.036-0.151-0.346-0.322-0.765-0.566-1.217-0.708-0.115-0.042-0.278-0.071-0.398-0.106-0.047-0.012-0.031-0.081 0.015-0.074l0.206 0.032c0.679 0.099 1.323 0.42 1.823 0.892 0.153 0.019 0.302 0.043 0.444 0.066 0.939 0.156 1.937 0.709 2.221 1.699 0.02 0.064 0.03 0.138 0.019 0.207-0.026 0.2-0.199 0.356-0.394 0.382 0 0-3e-3 1e-3 -7e-3 2e-3 0.952 0.076 1.491 0.373 1.855 0.57 0.439 0.238 0.311 0.512 0 0.439-0.169-0.04-0.59-0.069-0.941-0.087 0.284 0.156 0.518 0.323 0.666 0.471 0.494 0.494-0.457 0.293-1.116 0.128-0.312-0.077-0.83 0.022-1.289 0.148 9e-3 0.103 0.024 0.212 0.046 0.322 0.158 0.776 0.464 1.506 0.73 2.273 0.183 0.553 0.414 1.132 0.374 1.737-1e-3 5e-3 -1e-3 0.01-2e-3 0.015 0.148 0.234 0.359 0.442 0.594 0.619 0.772 0.569 1.871 0.926 2.851 0.96 0.546-0.196 1.08-0.437 1.6-0.707-0.322-0.545-0.89-1.486-1.051-1.615-0.229-0.183-0.467-0.659-0.175-0.622 0.253 0.032 1.667 1.076 2.255 1.663 0.019-0.012 0.039-0.023 0.058-0.035-0.272-0.488-0.829-1.468-0.994-1.63-0.22-0.218-0.516-0.639 0.053-0.382 0.437 0.197 1.211 1.009 1.632 1.586 0.037-0.023 0.075-0.047 0.112-0.07 0.347-0.254 0.833-0.241 1.151 0.062 0.076 0.065 0.122 0.158 0.19 0.229 0.097 0.095 0.248 0.133 0.386 0.13h-7e-3l0.188 0.017c0.644 0.168 1.386 0.567 1.575 1.25 0.827 0.594 0.742 1.568 0.212 2.406" clip-path="url(#clipPath2182)" fill="#ddc65e"/>
  <g fill="#f36318">
   <path transform="matrix(9.9398 0 0 -9.9398 792.29 878.2)" d="m0 0h1e-3 -1e-3m-0.098-0.059c5e-3 0.014 0.019 0.026 0.036 0.036-0.013-9e-3 -0.025-0.021-0.036-0.036m-2.906 4.029c-0.059-0.419-0.17-0.569-0.407-0.741-0.102-2e-3 -0.196 0.016-0.285 0.058h-1e-3c-0.017 8e-3 -0.034 0.017-0.05 0.026-0.069 0.04-0.135 0.093-0.201 0.163-0.019 0.02-0.037 0.041-0.055 0.062 0 1e-3 -1e-3 1e-3 -1e-3 1e-3v1e-3c-1e-3 0-1e-3 1e-3 -1e-3 1e-3 -0.01 0.012-0.02 0.024-0.03 0.037-0.039 0.051-0.079 0.109-0.12 0.175-0.015 0.024-0.029 0.048-0.043 0.072-1e-3 0-1e-3 1e-3 -1e-3 1e-3 -1e-3 1e-3 -2e-3 2e-3 -2e-3 3e-3 -1e-3 1e-3 -1e-3 2e-3 -2e-3 3e-3 -0.013 0.024-0.027 0.047-0.04 0.071-1e-3 1e-3 -2e-3 3e-3 -3e-3 4e-3 -1e-3 2e-3 -1e-3 3e-3 -2e-3 5e-3 -0.013 0.023-0.025 0.045-0.037 0.068-2e-3 3e-3 -4e-3 5e-3 -6e-3 8e-3 -1e-3 2e-3 -1e-3 5e-3 -3e-3 7e-3l-0.027 0.05c-6e-3 0.012-0.015 0.022-0.025 0.031-2e-3 0.012-6e-3 0.025-0.013 0.036l-9e-3 0.014c-5e-3 8e-3 -0.012 0.016-0.019 0.022-3e-3 8e-3 -6e-3 0.016-0.011 0.024l-6e-3 8e-3c-4e-3 6e-3 -9e-3 0.011-0.014 0.016 0.156 0.124 0.512 0.379 0.796 0.382 0.214 3e-3 0.401-0.069 0.513-0.197 0.093-0.106 0.129-0.244 0.105-0.411m6.7-6.803c-0.454-2e-3 -0.912-0.202-1.194-0.563-1.493 0.936-3.046 1.796-4.792 2.199-2.495 0.58-3.973-0.578-5.241-2.618-0.765-1.211-0.953-2.473-0.166-3.738 0.163-0.276 0.186-0.571 0.221-0.902 0.064-1.089 0.257-1.779 1.387-2.175 0.152-0.051 0.304-0.089 0.458-0.119-0.211-0.551-0.786-0.886-1.372-1.009 0.053 0.087 0.104 0.176 0.148 0.268 0.103 0.253-0.273 0.392-0.36 0.135-0.057-0.161-0.139-0.316-0.229-0.463-0.224-0.019-0.488-0.03-0.733 0 0.25 0.208 0.459 0.462 0.573 0.77 0.058 0.259-0.319 0.352-0.39 0.097-0.047-0.19-0.157-0.361-0.279-0.518-0.076-0.095-0.163-0.185-0.257-0.268-0.175 0.066-0.317 0.171-0.39 0.334-0.03 0.071-0.051 0.147-0.065 0.227 0.192 0.192 0.351 0.418 0.467 0.662 0.1 0.252-0.273 0.389-0.36 0.133-0.034-0.102-0.078-0.201-0.129-0.297 3e-3 0.062 6e-3 0.124 0.01 0.184 0.051 0.81 0.213 1.83-0.38 2.544-0.151 0.188-0.351 0.315-0.554 0.435-0.731 0.481-0.977 1.387-1.278 2.193-0.131 0.362-0.27 0.733-0.445 1.094-0.418 0.907-1.143 1.697-2.073 2.082-0.18 0.076-0.362 0.142-0.548 0.194 0.167-0.096 0.331-0.196 0.486-0.306 1.176-0.799 1.585-1.945 1.895-3.273 0.068-0.266 0.134-0.536 0.213-0.802-1.655-0.742-3.189-1.796-4.371-3.18-1.733-2.005-2.611-4.638-2.74-7.259-0.046-0.922-0.021-1.847 0.088-2.762-0.475 0.925-0.899 1.874-1.259 2.845-0.821 2.233-1.3 4.581-1.297 6.956 9e-3 2.232 0.407 4.498 1.383 6.513 0.031 0.061 0.089 0.173 0.123 0.23l0.638 1.755-1.444-0.997c-4.035-2.701-6.599-7.229-6.812-12.078-2.489 9.357-1.039 18.247 8.634 22.882 0.091-0.165 0.196-0.323 0.315-0.472 0.451-0.562 0.938-1.109 1.47-1.595 0.533-0.477 1.126-0.935 1.815-1.149-0.315 0.168-0.598 0.379-0.853 0.619-0.578 0.534-1.057 1.168-1.504 1.812-0.138 0.209-0.298 0.442-0.424 0.656-0.455 0.749-0.612 1.766 0.173 2.325 0.346 0.252 0.789 0.39 1.215 0.446 1.371 0.114 2.744-1.103 3.624-2.078 0.233-0.26 0.434-0.543 0.636-0.827 0.449-0.618 1.277-0.972 2.021-0.833-0.666 0.167-1.241 0.54-1.569 1.135-0.028 0.053-0.093 0.171-0.119 0.225-0.209 0.384-0.447 0.748-0.711 1.095 0.477 0.101 0.979 0.122 1.482 0.083 1.893-0.171 3.704-0.997 5.313-1.99 0.093-0.058 0.181-0.119 0.265-0.176l0.078-0.023c1.007-0.314 2.022-0.69 2.973-1.149 0.216-0.109 0.452-0.229 0.681-0.363-0.112-0.088-0.22-0.182-0.321-0.284-0.123-0.134 0.075-0.314 0.197-0.183 0.102 0.114 0.227 0.224 0.352 0.325 0.26-0.172 0.495-0.364 0.656-0.583 0.057-0.081 0.111-0.164 0.167-0.246-0.131-0.098-0.256-0.202-0.375-0.316-0.124-0.132 0.07-0.315 0.195-0.186 0.094 0.102 0.206 0.2 0.319 0.29 0.053-0.081 0.105-0.162 0.157-0.245-0.24-0.045-0.474-0.1-0.698-0.16-0.174-0.055-0.092-0.31 0.08-0.257 0.241 0.082 0.494 0.149 0.748 0.205 0.167-0.273 0.328-0.55 0.484-0.831-0.149 0.014-0.337 0.014-0.488-0.041-0.214-0.078-0.508 0.024-0.69 0.153-0.206 0.144-0.545 0.246-0.825 0.246-0.244 0-0.326 0.042-0.38 0.197-0.109 0.312-0.502 0.8-1.096 0.8-7e-3 0-0.014 0-0.022-1e-3 -0.291-6e-3 -0.58-0.101-0.86-0.194-0.286-0.095-0.556-0.185-0.752-0.145-0.086 0.018-0.172 0.045-0.271 0.086-0.071 0.029-0.14 0.062-0.207 0.093-0.199 0.095-0.386 0.184-0.591 0.16-0.114-0.014-0.223 0.044-0.349 0.11-0.152 0.08-0.325 0.17-0.555 0.164-0.37-0.012-0.541 0.027-0.65 0.149-0.041 0.046-0.113 0.051-0.16 9e-3 -0.046-0.042-0.05-0.114-8e-3 -0.16 0.181-0.203 0.451-0.237 0.825-0.225 0.172 6e-3 0.303-0.064 0.442-0.138 0.146-0.076 0.296-0.156 0.482-0.134 0.14 0.016 0.291-0.056 0.467-0.14 0.067-0.031 0.135-0.063 0.209-0.094 0.053-0.033 0.458-0.288 0.714-0.595 0.016-0.018 0.035-0.03 0.057-0.036 0-0.023 7e-3 -0.046 0.021-0.065 4e-3 -7e-3 0.01-0.013 0.015-0.018 3e-3 -6e-3 5e-3 -0.013 9e-3 -0.019l7e-3 -0.011c6e-3 -0.01 0.013-0.018 0.021-0.025 2e-3 -0.01 5e-3 -0.021 0.011-0.031l0.027-0.05c1e-3 -2e-3 4e-3 -4e-3 5e-3 -7e-3s2e-3 -6e-3 4e-3 -9e-3c0.012-0.023 0.025-0.046 0.038-0.07l3e-3 -3e-3c1e-3 -2e-3 1e-3 -4e-3 2e-3 -6e-3h1e-3c0.013-0.025 0.027-0.049 0.042-0.074 0-1e-3 1e-3 -2e-3 2e-3 -2e-3 0-2e-3 1e-3 -3e-3 1e-3 -4e-3 0.015-0.026 0.03-0.051 0.046-0.076 1e-3 -1e-3 1e-3 -2e-3 1e-3 -2e-3v-1e-3h1e-3c0.045-0.073 0.089-0.137 0.134-0.195 0.011-0.014 0.022-0.028 0.033-0.042h1e-3c0-1e-3 0-1e-3 1e-3 -1e-3v-1e-3l1e-3 -1e-3c0.02-0.025 0.042-0.049 0.063-0.072h1e-3v-1e-3c8e-3 -8e-3 0.015-0.016 0.023-0.023 0.094-0.095 0.191-0.166 0.296-0.215 1e-3 0 1e-3 0 1e-3 -1e-3h1e-3c0.114-0.053 0.235-0.079 0.363-0.079 0.016 0 0.033 0 0.049 1e-3h1e-3c4e-3 0 9e-3 0 0.014 1e-3 0.074 5e-3 0.15 0.018 0.227 0.04 0.272 0.077 0.462 0.141 0.6 0.188 0.217 0.073 0.315 0.107 0.455 0.1 0.111-5e-3 0.224 0.03 0.344 0.067 0.195 0.059 0.378 0.116 0.533 3e-3l0.031-0.023c0.288-0.211 0.461-0.339 0.812-0.245 0.064 0.018 0.162 0.032 0.265 0.047 0.19 0.027 0.372 0.054 0.5 0.111 3e-3 -4e-3 5e-3 -9e-3 7e-3 -0.013-0.263-0.076-0.528-0.203-0.708-0.425 3e-3 3e-3 8e-3 4e-3 0.01 5e-3 0.012 2e-3 1e-3 -0.01-0.021-0.021-0.228-0.083-0.519-0.072-0.781-0.105-0.579-0.049-1.243-0.221-1.617-0.711-0.069-0.088-0.127-0.182-0.177-0.28-2.483 1.287-5.182 2.161-7.992 2.193-1.315 0.012-2.633-0.181-3.88-0.596-0.027-8e-3 -0.041-0.037-0.033-0.063 9e-3 -0.027 0.037-0.042 0.064-0.033 3.97 1.266 8.135 0.205 11.748-1.713-2e-3 -7e-3 -5e-3 -0.013-8e-3 -0.02 4e-3 7e-3 8e-3 0.012 0.011 0.018 0.944-0.501 1.85-1.06 2.705-1.652 0.033-0.022 0.129-0.084 0.161-0.103 0.036-0.022 0.077-0.044 0.123-0.043 0.011-6e-3 0.095 0.022 0.111 0.061 0.061 0.094-3e-3 0.187-0.085 0.206l-0.014 8e-3 -0.048 0.029c-0.903 0.609-1.846 1.18-2.823 1.688 0.419 0.544 1.062 0.663 1.759 0.588 0.377-0.014 0.905-0.177 1.233 0.121 0.119 0.084 0.262 0.107 0.446 0.116 0.062 2e-3 0.128 0 0.194-5e-3l0.015-0.03s0.063 7e-3 0.138 0.015c0.04-6e-3 0.079-0.014 0.116-0.022l4e-3 0.035c0.068 7e-3 0.122 0.013 0.122 0.013 0.021 1e-3 0.065 7e-3 0.086 7e-3 0.419 0.026 0.892-0.09 0.989-0.536-0.602 0.206-1.26 0.228-1.453 0.228-0.235 0-0.486-0.502-0.988-0.518s-0.738-0.173-0.738-0.173c0.314 0.142 0.644-0.031 1.208 0 0.565 0.032 0.393 0.471 0.816 0.471 0.424 0 1.193-0.298 1.193-0.298l0.032 0.012c0.043-0.032 0.143-0.107 0.143-0.107 0.761-0.596 1.532-1.253 2.111-2.032-0.206 0.031-0.421 0.056-0.591 0.056-0.471 0-0.816 0.266-0.785 0.58s-0.031 0.377-0.173 0.314c0 0-0.345-0.533-0.031-0.879 0.277-0.304 1.248-0.975 1.334-2.194-0.168-0.151-0.394-0.241-0.639-0.317m-8.938-0.361c-0.086 0.126-0.187 0.242-0.299 0.345 0.731 0.671 1.57 0.921 2.6 0.767-0.249-0.099-0.486-0.197-0.69-0.286-0.552-0.241-1.097-0.504-1.611-0.826m-0.526-1.588c-0.244-0.753-0.705-1.631-1.005-2.496-7e-3 0.016-0.014 0.033-0.021 0.048-0.023 0.047-0.062 0.121-0.089 0.165-0.174 0.292-0.299 0.594-0.344 0.898-0.148 1.03 0.553 1.945 1.155 2.736 0.031 0.04 0.063 0.08 0.095 0.118 0.151-0.157 0.266-0.348 0.316-0.56 0.07-0.309-7e-3 -0.61-0.107-0.909m11.462 4.592c-0.643 1.012-1.528 1.802-2.455 2.535-0.236 0.837-1.003 1.241-1.832 1.249-0.12 0.229-0.241 0.454-0.366 0.68-0.106 0.189-0.213 0.376-0.321 0.562 0.531 0.038 1.065 9e-3 1.579-0.138 0.158-0.048 0.313-0.107 0.463-0.179 0.051-0.025 0.088 0.051 0.04 0.078-0.657 0.348-1.423 0.453-2.19 0.422-0.129 0.219-0.263 0.435-0.401 0.648 0.552 0.254 1.157 0.394 1.765 0.407 0.369 8e-3 0.739-0.026 1.103-0.097 0.03-6e-3 0.06 0.013 0.067 0.043 7e-3 0.031-0.012 0.062-0.043 0.069-0.994 0.243-2.073 0.163-3.014-0.236-0.043 0.064-0.086 0.128-0.13 0.192l0.126 0.069c0.633 0.333 1.328 0.558 2.03 0.695 0.229 0.048 0.486 0.083 0.716 0.115 0.074 0.013 0.057 0.121-0.015 0.114-0.161-0.017-0.323-0.032-0.485-0.052-0.858-0.122-1.736-0.336-2.508-0.745l-3e-3 3e-3c-0.153 0.197-0.331 0.369-0.524 0.524 0.132 0.069 0.267 0.134 0.403 0.195 0.39 0.167 0.803 0.311 1.216 0.41 0.241 0.064 0.514 0.113 0.757 0.157 0.032 4e-3 0.055 0.034 0.05 0.066-5e-3 0.031-0.034 0.052-0.065 0.047-0.173-0.026-0.346-0.048-0.518-0.078-0.701-0.129-1.391-0.339-2.031-0.655-0.377 0.269-0.796 0.485-1.197 0.688-0.995 0.477-2.015 0.846-3.068 1.171-2.262 1.429-5.5 2.815-8.173 1.956l1e-3 -3e-3c-0.96 0.981-2.353 1.797-3.764 1.415-0.449-0.113-0.88-0.292-1.262-0.613-0.696-0.586-0.864-1.39-0.69-2.159-3.331-1.625-6.339-4.111-8.087-7.425-2.438-4.522-2.324-9.936-1.189-14.818 0.431-2.014 1.303-4.448 1.933-6.428l-0.378 2.925c-7e-3 0.071-0.013 0.156-0.017 0.235-0.03 0.571-0.013 1.145 0.033 1.715 0.297 3.966 2.231 7.649 5.271 10.144-0.053-0.175-0.103-0.35-0.151-0.526-1.066-4.007-0.532-8.322 1.014-12.128 0.813-2.077 2.04-4.058 3.246-5.928-0.113 0.439-0.543 1.868-0.599 2.317-0.089 0.527-0.148 1.061-0.18 1.596-0.173 2.816 0.401 5.764 2.076 8.067 1.186 1.648 2.883 2.859 4.744 3.642 0.101-0.194 0.218-0.382 0.362-0.56 0.18-0.219 0.398-0.419 0.64-0.573 0.076-0.046 0.149-0.106 0.2-0.176 0.156-0.212 0.179-0.514 0.195-0.798 0.034-0.664-0.086-1.449 0.166-2.123-0.212-0.121-0.448-0.2-0.693-0.24-0.026-3e-3 -0.046-0.026-0.044-0.052 2e-3 -0.027 0.025-0.048 0.052-0.046 0.196 0.012 0.397 0.032 0.588 0.098 0.058 0.018 0.116 0.04 0.172 0.063 0.026-0.051 0.054-0.103 0.085-0.153 0.108-0.164 0.238-0.289 0.384-0.385-0.037-0.018-0.072-0.036-0.094-0.047-0.18-0.083-0.442-0.175-0.634-0.235-0.056-0.018-0.032-0.102 0.024-0.09l0.338 0.07c0.191 0.05 0.396 0.114 0.581 0.186h1e-3c0.312-0.135 0.674-0.167 1.035-0.152-0.346-0.321-0.765-0.565-1.217-0.707-0.115-0.042-0.278-0.071-0.398-0.106-0.047-0.012-0.03-0.081 0.015-0.074l0.207 0.031c0.678 0.099 1.323 0.421 1.822 0.893 0.153 0.019 0.303 0.042 0.445 0.066 0.939 0.155 1.936 0.709 2.22 1.698 0.021 0.064 0.03 0.139 0.019 0.208-0.025 0.199-0.199 0.356-0.393 0.382 0 0-3e-3 1e-3 -7e-3 2e-3 0.952 0.076 1.491 0.373 1.854 0.569 0.439 0.238 0.311 0.513 0 0.44-0.169-0.04-0.59-0.069-0.94-0.087 0.284 0.156 0.517 0.322 0.666 0.471 0.494 0.494-0.458 0.293-1.117 0.128-0.311-0.078-0.829 0.021-1.289 0.147 9e-3 0.104 0.025 0.213 0.047 0.323 0.158 0.776 0.463 1.506 0.729 2.273 0.183 0.553 0.414 1.132 0.374 1.737 0 5e-3 -1e-3 9e-3 -1e-3 0.014 0.148 0.235 0.358 0.443 0.593 0.62 0.772 0.569 1.872 0.926 2.851 0.96 0.547-0.196 1.08-0.437 1.601-0.707-0.322-0.545-0.89-1.486-1.052-1.615-0.229-0.183-0.467-0.659-0.174-0.622 0.252 0.031 1.667 1.075 2.254 1.662 0.02-0.011 0.039-0.022 0.059-0.034-0.273-0.488-0.83-1.468-0.994-1.63-0.221-0.218-0.517-0.639 0.052-0.382 0.437 0.196 1.211 1.008 1.633 1.586 0.037-0.023 0.074-0.047 0.112-0.071 0.347-0.253 0.833-0.24 1.15 0.063 0.076 0.065 0.122 0.158 0.19 0.229 0.097 0.095 0.249 0.133 0.386 0.13h-7e-3l0.189 0.016c0.644 0.169 1.386 0.568 1.575 1.251 0.826 0.594 0.741 1.568 0.211 2.406" clip-path="url(#clipPath2184)"/>
   <path transform="matrix(9.9398 0 0 -9.9398 656.22 808.66)" d="m0 0 0.998-0.278c-0.41 0.865-1.354 1.371-1.354 1.371l0.21-0.552-1.446 0.808 0.301-0.447-1.609 1.085c0.566-0.476 1.381-1.804 1.381-1.804l1.822-1.045z" clip-path="url(#clipPath2190)"/>
   <path transform="matrix(9.9398 0 0 -9.9398 800.59 887.63)" d="m0 0c-0.051-4e-3 -0.101-0.03-0.126-0.074-0.036-0.068 0-0.155 0.058-0.206 0.059-0.052 0.143-0.079 0.217-0.055 0.092 0.029 0.135 0.126 0.099 0.212-0.039 0.09-0.156 0.131-0.248 0.123" clip-path="url(#clipPath2192)"/>
   <path transform="matrix(9.9398 0 0 -9.9398 806.16 894.05)" d="m0 0s-0.079 4e-3 -0.095-0.055c-9e-3 -0.034 0-0.07 0.01-0.104 9e-3 -0.029 0.02-0.061 0.046-0.077 0.016-0.01 0.036-0.012 0.055-0.014 0.046-4e-3 0.102-4e-3 0.126 0.036 0.013 0.022 0.01 0.05 2e-3 0.075-0.02 0.067-0.077 0.121-0.144 0.139" clip-path="url(#clipPath2194)"/>
   <path transform="matrix(9.9398 0 0 -9.9398 815.8 902.57)" d="m0 0c-0.015-0.021-0.018-0.05-0.014-0.076 8e-3 -0.061 0.05-0.115 0.104-0.145 0.053-0.031 0.118-0.04 0.179-0.032 9e-3 1e-3 0.019 2e-3 0.026 9e-3 8e-3 7e-3 9e-3 0.019 0.01 0.03 1e-3 0.059-0.029 0.117-0.074 0.157-0.043 0.037-0.185 0.121-0.231 0.057" clip-path="url(#clipPath2196)"/>
   <path transform="matrix(9.9398 0 0 -9.9398 810.07 898.47)" d="m0 0c-0.015-0.021-0.018-0.05-0.014-0.076 8e-3 -0.061 0.05-0.115 0.104-0.145 0.053-0.031 0.118-0.04 0.179-0.032 9e-3 1e-3 0.019 2e-3 0.026 9e-3 8e-3 7e-3 0.01 0.019 0.01 0.03 1e-3 0.059-0.029 0.117-0.074 0.157-0.043 0.037-0.185 0.121-0.231 0.057" clip-path="url(#clipPath2198)"/>
   <path transform="matrix(9.9398 0 0 -9.9398 783.13 878.99)" d="m0 0c-0.01-4e-3 -0.019-8e-3 -0.029-0.012-0.414 0.21-0.831 0.404-1.254 0.591-2.667 1.152-6.099 2.338-9.022 1.873-0.512-0.088-1.017-0.236-1.484-0.468-0.022-0.011-0.031-0.037-0.021-0.059 0.011-0.023 0.038-0.032 0.06-0.021 0.461 0.222 0.959 0.361 1.463 0.441 3.164 0.471 7.23-1.097 10.084-2.544l-3e-3 -6e-3c-7e-3 -0.02-0.013-0.042-0.012-0.064 3e-3 -0.042 0.034-0.078 0.067-0.104 0.028-0.023 0.061-0.043 0.097-0.048 0.064-9e-3 0.125 0.026 0.188 0.031 0.067 4e-3 0.139-0.025 0.199 4e-3 0.048 0.023 0.074 0.075 0.088 0.126 0.011 0.042 0.017 0.088 0 0.128-0.06 0.144-0.293 0.179-0.421 0.132" clip-path="url(#clipPath2200)"/>
   <path transform="matrix(9.9398 0 0 -9.9398 792.91 883.71)" d="m0 0c-0.08 0.022-0.162 3e-3 -0.22-0.051-0.012-0.012-0.024-0.026-0.03-0.043-0.012-0.035-2e-3 -0.078 0.012-0.116 0.013-0.033 0.031-0.066 0.055-0.089 0.044-0.04 0.1-0.045 0.148-0.075 0.05-0.031 0.093-0.092 0.147-0.101 0.042-7e-3 0.079 0.02 0.106 0.052 0.023 0.026 0.043 0.059 0.044 0.099 5e-3 0.143-0.153 0.293-0.262 0.324" clip-path="url(#clipPath2202)"/>
   <path transform="matrix(9.9398 0 0 -9.9398 806.06 880)" d="m0 0c-0.03 0.093-0.143 0.144-0.235 0.145-0.051 1e-3 -0.104-0.02-0.132-0.062-0.043-0.065-0.014-0.155 0.039-0.211 0.053-0.057 0.135-0.091 0.211-0.075 0.094 0.021 0.146 0.114 0.117 0.203" clip-path="url(#clipPath2204)"/>
   <path transform="matrix(9.9398 0 0 -9.9398 813.74 878.93)" d="m0 0c0.102 0.01 0.146 0.114 0.1 0.225-0.048 0.117-0.182 0.195-0.286 0.21-0.056 9e-3 -0.112-8e-3 -0.137-0.054-0.038-0.071 8e-3 -0.183 0.075-0.259 0.069-0.076 0.165-0.13 0.248-0.122" clip-path="url(#clipPath2206)"/>
   <path transform="matrix(9.9398 0 0 -9.9398 810.34 887.08)" d="m0 0c4e-3 0.036-9e-3 0.078-0.026 0.113-0.046 0.093-0.122 0.159-0.194 0.168 0 0-0.078-0.014-0.07-0.105 4e-3 -0.053 0.027-0.104 0.05-0.152 0.019-0.041 0.042-0.084 0.074-0.101 0.019-0.011 0.039-9e-3 0.058-7e-3 0.046 5e-3 0.101 0.019 0.108 0.084" clip-path="url(#clipPath2208)"/>
   <path transform="matrix(9.9398 0 0 -9.9398 817.2 885.29)" d="m0 0c0.021-0.01 0.043-8e-3 0.064-5e-3 0.051 6e-3 0.111 0.022 0.121 0.087 5e-3 0.037-8e-3 0.078-0.026 0.113-0.048 0.092-0.129 0.157-0.209 0.165 0 0-0.086-0.017-0.08-0.108 3e-3 -0.053 0.027-0.104 0.051-0.152 0.021-0.04 0.045-0.084 0.079-0.1" clip-path="url(#clipPath2210)"/>
   <path transform="matrix(9.9398 0 0 -9.9398 817.5 894.82)" d="m0 0c-0.017-0.02-0.022-0.048-0.021-0.074 3e-3 -0.062 0.039-0.119 0.09-0.155 0.051-0.035 0.114-0.05 0.176-0.048 9e-3 0 0.019 1e-3 0.027 7e-3 8e-3 7e-3 0.011 0.018 0.012 0.029 7e-3 0.059-0.018 0.12-0.059 0.163-0.04 0.041-0.174 0.138-0.225 0.078" clip-path="url(#clipPath2212)"/>
   <path transform="matrix(9.9398 0 0 -9.9398 823.2 890.79)" d="m0 0c8e-3 7e-3 0.011 0.018 0.012 0.029 7e-3 0.059-0.018 0.12-0.059 0.163-0.039 0.041-0.173 0.138-0.225 0.078-0.017-0.02-0.022-0.048-0.021-0.074 3e-3 -0.062 0.04-0.119 0.091-0.155 0.05-0.035 0.113-0.05 0.175-0.048 0.01 0 0.02 1e-3 0.027 7e-3" clip-path="url(#clipPath2214)"/>
   <path transform="matrix(9.9398 0 0 -9.9398 821.87 899.97)" d="m0 0c-0.017-0.02-0.022-0.048-0.021-0.074 3e-3 -0.062 0.039-0.119 0.09-0.155 0.051-0.035 0.114-0.049 0.176-0.048 9e-3 0 0.019 1e-3 0.027 7e-3 8e-3 7e-3 0.011 0.018 0.012 0.029 7e-3 0.059-0.018 0.12-0.059 0.163-0.04 0.041-0.174 0.138-0.225 0.078" clip-path="url(#clipPath2216)"/>
   <path transform="matrix(9.9398 0 0 -9.9398 812.17 890.22)" d="m0 0c-0.017-0.02-0.022-0.048-0.021-0.074 3e-3 -0.062 0.039-0.119 0.09-0.155 0.051-0.035 0.114-0.049 0.176-0.048 9e-3 0 0.019 1e-3 0.027 7e-3 8e-3 7e-3 0.011 0.018 0.012 0.029 7e-3 0.059-0.018 0.12-0.059 0.163-0.04 0.041-0.174 0.138-0.225 0.078" clip-path="url(#clipPath2218)"/>
   <path transform="matrix(9.9398 0 0 -9.9398 796.42 873.96)" d="m0 0c-0.078 0.03-0.161 0.018-0.224-0.031-0.013-0.01-0.026-0.023-0.034-0.04-0.015-0.033-9e-3 -0.078 2e-3 -0.117 0.01-0.034 0.024-0.068 0.047-0.093 0.039-0.044 0.095-0.054 0.14-0.088 0.047-0.036 0.084-0.1 0.137-0.114 0.041-0.011 0.08 0.012 0.111 0.042 0.025 0.024 0.048 0.055 0.053 0.094 0.018 0.143-0.126 0.307-0.232 0.347" clip-path="url(#clipPath2220)"/>
   <path transform="matrix(9.9398 0 0 -9.9398 780.44 885.11)" d="m0 0-0.988 0.455c-0.294 0.113-0.717 0.296-1.011 0.4l-0.515 0.176-0.257 0.088s-0.262 0.075-0.262 0.075c-1.666 0.483-3.673 0.806-5.367 0.316-0.023-7e-3 -0.036-0.031-0.029-0.054 7e-3 -0.025 0.035-0.038 0.059-0.029 0.337 0.101 0.696 0.15 1.052 0.176 1.52 0.111 3.043-0.215 4.483-0.681 0.164-0.06 0.586-0.215 0.757-0.277 0.289-0.11 0.7-0.296 0.99-0.416l0.967-0.469c0.068-0.038 0.155-9e-3 0.187 0.061 0.031 0.068 2e-3 0.148-0.066 0.179" clip-path="url(#clipPath2222)"/>
  </g>
  <g fill="#ed1c24">
   <path transform="matrix(9.9398 0 0 -9.9398 756.76 837.54)" d="m0 0c-2e-3 -6e-3 -4e-3 -0.012-6e-3 -0.017-0.019-0.054-0.039-0.105-0.052-0.132-0.034-0.071 0.022-0.275 0.163-0.222 9e-3 3e-3 0.019 8e-3 0.029 0.014 0.021 0.012 0.039 0.03 0.054 0.051 0.017 0.025 0.03 0.054 0.04 0.086 8e-3 0.026 0.014 0.053 0.017 0.081 2e-3 0.016 4e-3 0.032 4e-3 0.048 4e-3 0.144-0.054 0.287-0.186 0.276 0 0-0.031-0.094-0.063-0.185" clip-path="url(#clipPath2224)"/>
   <path transform="matrix(9.9398 0 0 -9.9398 593.62 898.17)" d="m0 0c0.01 0.03 0.019 0.048 0.024 0.057 0.025 0.012 0.126 0.054 0.356 0.054l9.979-9e-3 1.007 2.145-10.294 9e-3c-0.455 0-0.871-0.05-1.236-0.149-0.39-0.105-0.74-0.26-1.04-0.46-0.316-0.21-0.582-0.466-0.791-0.76-0.192-0.271-0.343-0.572-0.447-0.895l-0.134-0.415c-0.104-0.323-0.148-0.624-0.131-0.895 0.019-0.294 0.12-0.55 0.3-0.761 0.171-0.201 0.421-0.356 0.742-0.462 0.304-0.101 0.677-0.15 1.14-0.15l4.189-4e-3c0.229 0 0.304-0.042 0.321-0.055-1e-3 -8e-3 -3e-3 -0.026-0.013-0.056l-0.291-0.9c-0.01-0.031-0.019-0.048-0.023-0.057-0.026-0.013-0.127-0.054-0.357-0.054l-6.739 5e-3 -3.53 4e-3 -0.697-2.145 3.535-3e-3 3.279-3e-3 3.46-3e-3c0.462 0 0.866 0.048 1.236 0.148 0.389 0.105 0.739 0.26 1.04 0.461 0.316 0.21 0.582 0.466 0.791 0.759 0.192 0.272 0.343 0.573 0.447 0.896l0.284 0.88c0.105 0.322 0.149 0.623 0.131 0.895-0.019 0.294-0.12 0.55-0.3 0.761-0.171 0.2-0.421 0.356-0.742 0.462-0.301 0.099-0.684 0.15-1.14 0.15l-4.189 4e-3c-0.229 0-0.303 0.042-0.32 0.054 0 9e-3 3e-3 0.027 0.013 0.057zm-43.972-0.944 1e-3 3e-3 -2.836 2e-3 -0.788-2.438 2.222-2e-3 -0.129-0.398c-0.098 0-5.984 5e-3 -6.097 5e-3l1.268 3.926c0.092 0 0.824 0 1.191-1e-3l7.234-6e-3 0.692 2.145-7.234 6e-3c-0.957 1e-3 -2.265-0.15-2.881-0.461-0.702-0.355-1.194-0.916-1.421-1.62l-1.307-4.046c-0.227-0.704-0.098-1.265 0.375-1.621 0.415-0.313 1.081-0.465 2.038-0.466l4.803-4e-3c0.956-1e-3 1.719 0.148 2.333 0.455 0.703 0.352 1.194 0.907 1.42 1.606l0.94 2.914zm40.764 1.058 1.273 2.144-10.161 9e-3 -0.692-2.145 3.733-3e-3 -1.96-6.069 2.439-3e-3 1.96 6.07zm-13.499-2.592-4.832 4.753-1.891 2e-3 -2.653-8.215 2.267-1e-3 1.62 5.014 5.254-5.02 1.383-2e-3 2.652 8.215-2.267 2e-3zm-14.403 4.761-8.114-8.209 2.813-3e-3 5.137 5.272 1.674-5.278 2.833-2e-3 -2.774 8.219zm-8.852 8e-3 -2.653-8.214 2.659-3e-3 2.653 8.214z" clip-path="url(#clipPath2226)"/>
   <path transform="matrix(9.9398 0 0 -9.9398 528.92 807.61)" d="m0 0-5.564 8e-3h-0.252l-0.078-0.239-0.273-0.835-0.148-0.454h0.477l1.793-3e-3 -1.173-3.593-0.148-0.454h0.477l1.02-2e-3h0.251l0.078 0.239 1.243 3.808 2.024-3e-3h0.251l0.078 0.239 0.273 0.835 0.148 0.453zm-15.998-1.611-0.138-0.421c-0.087-0.267-0.228-0.381-0.472-0.381l-2.534 4e-3 0.339 1.041 2.685-4e-3c0.118 0 0.147-0.027 0.147-0.027 1e-3 0 0.026-0.049-0.027-0.212m1.391-0.668 0.213 0.655c0.169 0.516 0.147 0.925-0.064 1.217-0.205 0.282-0.566 0.426-1.072 0.427l-4.187 6e-3h-0.252l-0.078-0.239-1.593-4.882-0.148-0.454h0.477l1.013-2e-3h0.252l0.078 0.239 0.526 1.611 1.648-2e-3 0.639-1.632 0.09-0.23 0.246 0.01 1.138 0.045 0.49 0.02-0.742 1.855c0.635 0.168 1.089 0.63 1.326 1.356m6.131 2.073-0.08 0.233h-0.247l-0.554 1e-3h-0.147l-0.102-0.105-4.753-4.879-0.573-0.587 0.82-1e-3 1.377-1e-3h0.149l0.102 0.107 2.931 3.064 0.963-2.937 0.078-0.238h0.251l1.152-1e-3h0.487l-0.159 0.46zm-37.438-1.498c0.064 0.196 0.159 0.235 0.292 0.235l3.655-5e-3h0.25l0.079 0.237 0.277 0.835 0.151 0.455h-0.479l-4.06 6e-3h-1e-3c-0.87 1e-3 -1.477-0.446-1.753-1.293l-0.904-2.772c-0.152-0.464-0.129-0.837 0.067-1.108 0.193-0.266 0.528-0.401 0.997-0.402l2.52-3e-3 0.293-1e-3h0.556c0.217-1e-3 0.416 0.036 0.593 0.107 0.346 0.14 0.582 0.384 0.683 0.707l0.286 0.917 0.416 1.346 0.138 0.448-0.468 1e-3 -2.195 5e-3 -0.257 1e-3 -0.075-0.245-0.3-0.981-0.139-0.452 0.473 4e-3 0.783 6e-3 -0.125-0.336-2.498 3e-3c2e-3 7e-3 4e-3 0.014 7e-3 0.021zm11.713 1.748h-0.477l-1.013 2e-3h-0.252l-0.078-0.239-1.166-3.573c-0.065-0.199-0.147-0.235-0.286-0.235l-2.369 3e-3c2e-3 7e-3 4e-3 0.014 7e-3 0.021l1.166 3.573 0.148 0.453-0.477 1e-3 -1.014 1e-3 -0.251 1e-3 -0.078-0.239-1.249-3.827c-0.153-0.469-0.131-0.843 0.064-1.112 0.191-0.264 0.526-0.398 0.994-0.399l3.186-4e-3c0.868-1e-3 1.472 0.446 1.748 1.293l1.249 3.826zm4.99-0.46 0.148 0.453h-0.477l-1.013 2e-3h-0.252l-0.078-0.239-1.166-3.573c-0.065-0.199-0.147-0.235-0.286-0.235l-2.158 4e-3h-0.251l-0.078-0.239-0.273-0.835-0.148-0.453 0.477-1e-3 2.558-4e-3c0.868-1e-3 1.472 0.446 1.748 1.293zm5.182 0.224-0.08 0.232-0.247 1e-3h-0.701l-0.102-0.105-4.754-4.879-0.572-0.587 0.82-1e-3 1.377-1e-3h0.149l0.102 0.107 2.931 3.065 0.963-2.937 0.078-0.238 0.251-1e-3 1.152-1e-3h0.487l-0.159 0.46z" clip-path="url(#clipPath2228)"/>
  </g>
 </g>
</svg>