<svg xmlns="http://www.w3.org/2000/svg" width="265.20960475401625" height="377.06025048659416" version="1.1" viewBox="148.74 60.01 837.03 1190.1">
 <defs>
  <linearGradient id="linearGradient2963" x2="1" gradientTransform="matrix(19.864698,0,0,-19.864698,607.87518,171.24361)" gradientUnits="userSpaceOnUse">
   <stop stop-color="#b38a2a" offset="0"/>
   <stop stop-color="#b38a2a" offset=".00090336"/>
   <stop stop-color="#d7bf58" offset=".5"/>
   <stop stop-color="#d7bf58" offset=".50203667"/>
   <stop stop-color="#b38a2a" offset="1"/>
  </linearGradient>
  <linearGradient id="linearGradient2968" x2="1" gradientTransform="matrix(18.793011,0,0,-18.793011,607.52411,183.86421)" gradientUnits="userSpaceOnUse">
   <stop stop-color="#b38a2a" offset="0"/>
   <stop stop-color="#b38a2a" offset=".00090336"/>
   <stop stop-color="#d7bf58" offset=".5"/>
   <stop stop-color="#d7bf58" offset=".50203667"/>
   <stop stop-color="#b38a2a" offset="1"/>
  </linearGradient>
  <linearGradient id="linearGradient2973" x2="1" gradientTransform="matrix(19.531628,0,0,-19.531628,608.20819,165.76149)" gradientUnits="userSpaceOnUse">
   <stop stop-color="#b38a2a" offset="0"/>
   <stop stop-color="#b38a2a" offset=".00090336"/>
   <stop stop-color="#d7bf58" offset=".5"/>
   <stop stop-color="#d7bf58" offset=".50203667"/>
   <stop stop-color="#b38a2a" offset="1"/>
  </linearGradient>
  <clipPath id="clipPath2975">
   <path transform="translate(-608.74841,-165.45833)" d="m24.989 154.543h792v46.872h-792z"/>
  </clipPath>
  <clipPath id="clipPath2977">
   <path transform="translate(-620.96261,-165.46793)" d="m24.989 154.543h792v46.872h-792z"/>
  </clipPath>
 </defs>
 <g transform="matrix(30.978838,0,0,30.978838,-24944.107,-33497.909)">
  <path transform="matrix(1.3333333,0,0,-1.3333333,0,1341.36)" d="m618.31 175.315c-0.258-0.038-0.5-0.098-0.726-0.175-0.225-0.077-0.438-0.167-0.635-0.274-0.197-0.106-0.378-0.226-0.544-0.361-0.17-0.137-0.323-0.283-0.459-0.436-0.11-0.125-0.211-0.256-0.304-0.394-0.023-0.034-0.046-0.07-0.068-0.104v-2e-3c-3e-3 -4e-3 -6e-3 -8e-3 -7e-3 -0.011-0.027-0.043-0.053-0.086-0.078-0.13-0.075-0.133-0.144-0.269-0.204-0.409-0.035-0.082-0.068-0.166-0.097-0.25-0.04-0.11-0.076-0.222-0.106-0.335v-1e-3c-0.054-0.204-0.095-0.408-0.121-0.611-0.023-0.181-0.034-0.363-0.036-0.548-1e-3 -0.026-3e-3 -0.052-3e-3 -0.078 1e-3 -0.059 2e-3 -0.119 5e-3 -0.178s5e-3 -0.12 0.01-0.179c2e-3 -0.03 5e-3 -0.06 9e-3 -0.091 1e-3 -0.017 2e-3 -0.035 4e-3 -0.052 5e-3 -0.044 0.01-0.09 0.016-0.134 0.026-0.198 0.065-0.395 0.116-0.59 0.053-0.195 0.117-0.386 0.198-0.571 0.081-0.189 0.174-0.368 0.28-0.54 0.107-0.171 0.227-0.332 0.363-0.484l0.054-0.06c0.121-0.129 0.253-0.25 0.397-0.364 0.164-0.13 0.345-0.246 0.541-0.349 0.197-0.103 0.409-0.192 0.638-0.267s0.477-0.131 0.742-0.167c0.263-0.04 0.543-0.06 0.838-0.06h0.037c0.276 0 0.544 0.024 0.807 0.07 0.273 0.049 0.538 0.122 0.794 0.217 0.119 0.045 0.236 0.097 0.35 0.153 0.037 0.017 0.073 0.037 0.11 0.056 6e-3 4e-3 0.011 6e-3 0.017 0.01 0.031 0.016 0.062 0.033 0.092 0.051 0.041 0.024 0.08 0.047 0.121 0.072 0.178 0.112 0.349 0.241 0.514 0.383l-0.635 0.728-0.092 0.106-0.017 0.019-0.044 0.049c-0.021-0.019-0.043-0.038-0.066-0.057-0.039-0.032-0.081-0.064-0.122-0.094-0.108-0.08-0.223-0.152-0.341-0.217-0.121-0.064-0.243-0.121-0.369-0.17-0.123-0.049-0.25-0.09-0.383-0.126-0.13-0.032-0.26-0.057-0.39-0.074-0.131-0.018-0.259-0.026-0.383-0.026-0.213 2e-3 -0.411 0.016-0.595 0.043-0.188 0.028-0.364 0.069-0.528 0.125-0.165 0.054-0.317 0.119-0.458 0.194-0.14 0.075-0.271 0.162-0.39 0.26-0.118 0.097-0.224 0.201-0.32 0.312-0.097 0.112-0.183 0.231-0.257 0.356-2e-3 3e-3 -4e-3 5e-3 -5e-3 8e-3 -0.072 0.123-0.135 0.248-0.19 0.377-9e-3 0.023-0.016 0.045-0.025 0.068-0.043 0.111-0.081 0.225-0.112 0.344-0.033 0.137-0.061 0.279-0.078 0.423-0.019 0.141-0.028 0.282-0.03 0.425 0 0.148 8e-3 0.292 0.025 0.432 0.018 0.145 0.044 0.287 0.081 0.43 0.035 0.143 0.081 0.282 0.138 0.419 0.056 0.138 0.122 0.269 0.197 0.398h1e-3c0.077 0.128 0.164 0.248 0.261 0.362s0.207 0.22 0.327 0.322c0.12 0.101 0.249 0.189 0.393 0.268 0.141 0.079 0.294 0.147 0.457 0.203 0.162 0.057 0.335 0.099 0.522 0.129 0.183 0.028 0.379 0.043 0.586 0.044 0.125 0 0.251-5e-3 0.376-0.021 0.126-0.014 0.248-0.035 0.372-0.065h1e-3c0.124-0.03 0.246-0.069 0.365-0.112 0.119-0.046 0.235-0.098 0.349-0.156v-3e-3c0.116-0.061 0.226-0.13 0.329-0.207l0.028-0.02v1.335c-0.027 0.013-0.056 0.027-0.084 0.04-0.062 0.03-0.123 0.056-0.181 0.081-0.246 0.1-0.499 0.176-0.76 0.226-0.258 0.05-0.523 0.077-0.795 0.077-0.289-1e-3 -0.562-0.022-0.823-0.062m-7.527-0.079h-2.908l0.452-0.519 0.624-0.716h3.809c0.126 0 0.245-0.011 0.357-0.031 0.115-0.021 0.22-0.05 0.316-0.092 0.094-0.039 0.181-0.086 0.262-0.139 0.079-0.055 0.151-0.117 0.214-0.186 0.062-0.068 0.116-0.14 0.163-0.217 0.046-0.076 0.083-0.155 0.114-0.242l1e-3 -1e-3c0.029-0.083 0.051-0.17 0.066-0.256 0.015-0.087 0.022-0.175 0.022-0.264 0-0.087-7e-3 -0.174-0.022-0.262-0.013-0.087-0.035-0.172-0.063-0.257l-1e-3 -2e-3c-0.03-0.085-0.069-0.164-0.114-0.24-0.046-0.076-0.1-0.149-0.163-0.218-0.025-0.027-0.052-0.052-0.079-0.077-0.042-0.038-0.085-0.075-0.133-0.107-5e-3 -5e-3 -0.013-8e-3 -0.018-0.011-0.075-0.05-0.156-0.094-0.245-0.131-0.097-0.04-0.203-0.071-0.317-0.092-0.111-0.019-0.232-0.029-0.36-0.029h-1.858l1.067-1.224 2.365-2.715 1.596 0.026-2.369 2.715-0.155 0.144 0.214 0.027c0.19 0.039 0.364 0.09 0.521 0.151 0.158 0.061 0.3 0.132 0.428 0.214h1e-3c0.04 0.025 0.078 0.053 0.116 0.081-5e-3 0.034-9e-3 0.067-0.012 0.097-6e-3 0.052-0.01 0.104-0.015 0.156-6e-3 0.085-9e-3 0.17-0.012 0.255-1e-3 0.04-3e-3 0.081-3e-3 0.12 0 0.08 4e-3 0.159 7e-3 0.237 6e-3 0.143 0.016 0.286 0.035 0.427 0.026 0.201 0.065 0.407 0.118 0.611v1e-3l9e-3 0.034c0.055 0.21 0.128 0.42 0.217 0.625 0.065 0.151 0.138 0.297 0.216 0.434 0.017 0.029 0.033 0.058 0.05 0.087v1e-3l0.043 0.068c8e-3 0.013 0.016 0.025 0.024 0.038-0.047 0.098-0.097 0.193-0.155 0.284-0.09 0.139-0.195 0.269-0.315 0.393v-1e-3c-0.119 0.122-0.253 0.231-0.402 0.327-0.147 0.096-0.311 0.181-0.489 0.252-0.181 0.074-0.377 0.13-0.586 0.168-0.203 0.036-0.421 0.055-0.656 0.055h-1.092l-0.218 1e-3zm13.876-1e-3h-3.411v-5.859l1.12-1.281s-0.436-0.405-0.761-0.592c-0.044-0.026-0.085-0.053-0.126-0.076-0.039-0.023-0.079-0.044-0.118-0.066-0.039-0.02-0.079-0.041-0.115-0.058v-0.096h3.641c0.204 0 0.4 0.01 0.586 0.029 0.187 0.019 0.369 0.048 0.543 0.086 0.173 0.038 0.333 0.087 0.484 0.149 0.15 0.062 0.291 0.136 0.42 0.221 0.128 0.085 0.242 0.183 0.34 0.296 0.023 0.025 0.042 0.054 0.062 0.08 0.072 0.092 0.14 0.191 0.196 0.301 0.072 0.142 0.126 0.3 0.163 0.475 0.037 0.178 0.055 0.371 0.057 0.583 0 0.066-7e-3 0.182-0.021 0.3-0.01 0.09-0.025 0.183-0.044 0.252-0.02 0.08-0.049 0.161-0.083 0.242-0.035 0.082-0.076 0.165-0.122 0.248-0.042 0.074-0.091 0.145-0.146 0.213-5e-3 7e-3 -0.01 0.015-0.015 0.021-0.062 0.076-0.132 0.148-0.209 0.214-0.074 0.067-0.157 0.124-0.249 0.175-0.092 0.049-0.192 0.093-0.302 0.128l-0.261 0.081 0.25 0.114c0.116 0.054 0.222 0.112 0.316 0.176 0.091 0.063 0.173 0.133 0.243 0.207 0.07 0.075 0.131 0.153 0.183 0.235 0.016 0.026 0.03 0.052 0.044 0.079 0.032 0.057 0.06 0.116 0.081 0.177 0.03 0.082 0.053 0.187 0.07 0.296 0.019 0.126 0.028 0.254 0.028 0.356-1e-3 0.202-0.02 0.416-0.056 0.616-0.03 0.161-0.071 0.31-0.123 0.435-5e-3 0.013-0.011 0.028-0.017 0.042-0.063 0.136-0.14 0.261-0.229 0.373-0.09 0.113-0.193 0.213-0.309 0.302-0.117 0.089-0.244 0.166-0.382 0.233s-0.287 0.121-0.445 0.165c-0.158 0.043-0.326 0.075-0.502 0.097-0.176 0.021-0.36 0.031-0.551 0.031zm-2.154-3.147v2.004h2.384l1e-3 -1e-3c0.124 0 0.238-0.01 0.342-0.027 0.106-0.019 0.202-0.045 0.29-0.082 0.087-0.035 0.165-0.075 0.234-0.12 0.07-0.047 0.132-0.098 0.185-0.155 0.052-0.055 0.096-0.112 0.134-0.17 0.039-0.058 0.068-0.12 0.093-0.182 0.02-0.056 0.036-0.129 0.047-0.201 0.013-0.093 0.019-0.19 0.019-0.247 0-0.09-0.011-0.206-0.035-0.316-0.019-0.094-0.051-0.185-0.093-0.254-0.045-0.074-0.106-0.141-0.18-0.2-0.073-0.058-0.159-0.108-0.257-0.151-0.099-0.042-0.216-0.075-0.349-0.097-0.13-0.021-0.274-0.031-0.431-0.031h-2.384zm0-1.329h2.384c0.082 0 0.166-6e-3 0.253-0.018 0.086-0.013 0.173-0.032 0.263-0.054 0.089-0.025 0.177-0.056 0.262-0.092 0.083-0.036 0.166-0.079 0.244-0.126 0.081-0.05 0.155-0.104 0.22-0.165 0.067-0.062 0.125-0.129 0.176-0.203 0.052-0.073 0.09-0.178 0.117-0.291 0.032-0.129 0.047-0.269 0.047-0.372 0-0.104-0.013-0.199-0.041-0.287s-0.071-0.168-0.125-0.239c-0.052-0.068-0.112-0.13-0.181-0.185-0.068-0.054-0.142-0.1-0.223-0.138-0.079-0.037-0.161-0.069-0.244-0.095-0.086-0.028-0.172-0.048-0.261-0.064-0.09-0.015-0.176-0.026-0.26-0.034-0.084-7e-3 -0.167-0.011-0.247-0.011h-2.384zm-13.554-3.552h1.256v3.943h-1.256z" fill="url(#linearGradient2963)"/>
  <path transform="matrix(1.3333333,0,0,-1.3333333,0,1341.36)" d="m616.016 193.25c-0.071 0.017-0.155 0.034-0.268 0.025-0.01-0.092-6e-3 -0.203 0.036-0.301-0.075 0-0.143-3e-3 -0.193-0.015 0.025-0.086 0.054-0.168 0.11-0.228-0.067-0.019-0.115-0.049-0.145-0.09 4e-3 -0.01 9e-3 -0.019 0.014-0.028l-4e-3 -3e-3 8e-3 -4e-3c0.035-0.061 0.081-0.109 0.138-0.142-0.043-0.045-0.082-0.095-0.105-0.166l0.01-6e-3 -7e-3 -9e-3h0.021c0.094-0.058 0.194-0.096 0.302-0.11-0.05-0.157-0.146-0.274-0.291-0.267-0.192 9e-3 -0.276 0.142-0.37 0.243 0.048 3e-3 0.098 2e-3 0.147 1e-3s0.098-2e-3 0.147 1e-3c-0.028 0.193-0.078 0.381-0.136 0.533l-0.216-0.165c-6e-3 0.11-0.014 0.22-0.02 0.329-0.175-0.037-0.355-0.087-0.55-0.176l0.168-0.187c0.027-0.039 0.054-0.075 0.076-0.1h-0.252c0.021-0.153 0.075-0.309 0.169-0.467 0.061 0.031 0.124 0.063 0.185 0.094 5e-3 -0.02 0.011-0.039 0.013-0.059-2e-3 -0.078-0.023-0.165-0.047-0.23-0.014-0.019-0.029-0.037-0.049-0.053-0.081-0.072-0.202-0.057-0.341 0.016 0.057 0.048 0.115 0.097 0.173 0.145-0.086 0.015-0.171 0.029-0.256 0.044 0.023 0.092 0.044 0.185 0.067 0.279-0.068-7e-3 -0.145-0.018-0.236-0.036-0.011 0.073-0.021 0.146-0.032 0.22-0.061-0.059-0.124-0.113-0.188-0.165-0.275 0.08-0.404 0.023-0.511-0.055 0.391-0.1 0.299-0.358 0.48-0.645 0.082-0.129 0.274-0.136 0.412-0.204 0.094-0.09 0.134-0.206 0.059-0.38 0.134-0.107 0.206-0.208 0.251-0.306 0.345 0.222 0.793 0.345 1.392 0.327 0.598 0.018 1.046-0.105 1.391-0.327 0.045 0.098 0.117 0.199 0.25 0.306-0.074 0.174-0.034 0.29 0.06 0.38 0.138 0.068 0.33 0.075 0.412 0.204 0.182 0.287 0.089 0.545 0.48 0.645-0.107 0.078-0.235 0.135-0.511 0.055-0.063 0.052-0.126 0.106-0.189 0.165-0.01-0.074-0.02-0.147-0.031-0.22-0.091 0.018-0.168 0.029-0.236 0.036 0.023-0.094 0.045-0.187 0.067-0.279-0.085-0.015-0.17-0.029-0.255-0.044 0.058-0.048 0.115-0.097 0.173-0.145-0.141-0.073-0.261-0.088-0.342-0.016-0.038 0.034-0.063 0.069-0.079 0.106-9e-3 0.033-0.017 0.069-0.023 0.104-1e-3 0.044 6e-3 0.088 0.019 0.132 0.061-0.031 0.123-0.063 0.185-0.094 0.094 0.158 0.148 0.314 0.169 0.467h-0.256c0.016 0.02 0.035 0.045 0.056 0.073l0.192 0.214c-0.196 0.089-0.376 0.139-0.55 0.176-7e-3 -0.109-0.014-0.219-0.02-0.329l-0.216 0.165c-0.058-0.152-0.108-0.34-0.135-0.533 0.048-3e-3 0.096-2e-3 0.146-1e-3 0.049 1e-3 0.099 2e-3 0.147-1e-3 -0.094-0.101-0.178-0.234-0.37-0.243-0.145-7e-3 -0.241 0.11-0.291 0.267 0.109 0.014 0.21 0.053 0.305 0.112l0.013-1e-3 -4e-3 6e-3 0.013 8e-3c-0.024 0.071-0.063 0.121-0.107 0.166 0.068 0.04 0.12 0.098 0.157 0.177-0.027 0.039-0.074 0.071-0.145 0.09 0.056 0.06 0.086 0.142 0.11 0.228-0.051 0.012-0.118 0.015-0.193 0.015 0.042 0.098 0.046 0.209 0.035 0.301-0.111 9e-3 -0.196-8e-3 -0.266-0.025-0.025 0.137-0.085 0.231-0.161 0.306-0.077-0.075-0.137-0.169-0.161-0.306m0.045-0.636c0 0.099 0.052 0.18 0.116 0.18 0.063 0 0.115-0.081 0.115-0.18 0-0.1-0.052-0.18-0.115-0.18-0.064 0-0.116 0.08-0.116 0.18m0.135-1.039c0.339-3e-3 0.762-0.086 1.27-0.416-0.872 0.304-1.719 0.314-2.539 0 0.397 0.314 0.929 0.418 1.269 0.416m-3.586-0.771c6e-3 -0.029 0.202-0.073 0.299-0.196 0.377-0.486 0.074-1.069 0.728-1.306-0.568-0.354-0.47-1.151-1.263-1.38-0.201-0.05-0.377 0.012-0.5 0.073-0.087 0.043-0.148 0.087-0.171 0.09l-5e-3 8e-3v-8e-3c-2e-3 0-4e-3 -3e-3 -5e-3 -7e-3 -0.115-1.071 0.851-0.864 0.973-0.844-0.045-0.146-0.248-0.326-0.328-0.507-0.202-0.462 0.121-1.38-0.862-1.325-0.019-0.436 0.565-0.408 0.869-0.381 0.103 0.01 0.174 0.019 0.178 0.01 0.03-0.07-0.331-0.33-0.281-0.908 0.032-0.361 0.416-1.372-0.601-1.412-0.025-1e-3 -0.042-0.027-0.034-0.051 0.212-0.625 1.104-0.223 1.155-0.155 0.028 0.037 0.093-0.222 0.021-0.48-0.071-0.253-0.275-0.506-0.773-0.481l-7e-3 8e-3 1e-3 -8e-3 -5e-3 1e-3c-0.073 4e-3 0.12-0.602 0.746-0.626 0.229-9e-3 0.403 0.054 0.527 0.117 0.126 0.065 0.199 0.129 0.224 0.117 0.089-0.044 0.487-0.843 0.125-1.318-0.077-0.1-0.159-0.174-0.027-0.148 1.203 0.238 1.283 1.073 1.107 1.564-0.178 0.495-0.6 0.676-0.693 1.293-0.132 0.886 0.588 1.287 0.615 1.231 0.018-0.035-0.378-0.496-0.16-1.124 0.214-0.618 0.814-1.123 0.853-1.59 3e-3 -0.028 0.254 0.573 0.072 1.166-0.27 0.873-0.111 1.245-0.044 1.344 6e-3 9e-3 0.021 5e-3 0.02-7e-3 -0.02-0.158-0.023-0.766 1.01-1.366 0.075-0.047 0.147-0.087 0.212-0.115 0.076-0.039 0.158-0.079 0.244-0.117-2e-3 1.135-0.74 1.554-0.62 2.048 0.026 0.108 0.107 0.298 0.148 0.389 9e-3 9e-3 0.02 0.018 0.03 0.027 0.047-0.158 0.059-0.403 0.101-0.56 0.167-0.624 0.947-0.662 1.62-1.247-0.201 0.769-0.526 1.16-0.667 1.493-0.064 0.152-0.059 0.505 0.115 0.626 0.055 0.038 0.167-0.023 0.378-0.084 0.388-0.111 1.107-0.223 2.412 0.278 0.072 0.019 0.146 0.037 0.219 0.047 0.209 0.016 0.48-0.023 0.554-0.122-0.095 0.48-0.73 0.671-1.143 0.642-0.585-0.034-1.456-0.717-2.483-0.253 0.187 0.153 0.918 0.083 1.277 0.25 0.707 0.327 0.642 0.837 0.634 1.029 0 9e-3 -0.012 0.012-0.02 6e-3 -0.817-0.722-1.226-0.589-1.64-0.456-0.268 0.085-0.539 0.171-0.923 0.025-0.326-0.123-0.525-0.25-0.387 0.017 0.207 0.404 0.808 0.337 1.177 0.298 0.228-0.024 0.467 0.035 0.572 0.212 0.104 0.178 0.128 0.438 0.101 0.449-0.029 0.013-0.224-0.172-0.36-0.191-0.314-0.04-0.278 0.048-0.602 0.054-0.334 5e-3 -0.61 0.105-0.77 0.318-0.035 0.071 0.149 0.121 0.176 0.728 9e-3 0.203-0.037 0.826 0.361 1.025 0.353-0.369 1.046-0.438 1.43-0.698 0.042-0.029 0.047-0.231 0.09-0.244 0.054-0.013 0.319 0.527 0.232 0.921-0.02 0.091 0.289 0.088 0.408 0.569 0.051 0.211-0.242 0.27-0.414 0.27-0.271 0-0.894 0.129-0.977 0.173-0.231 0.788-2.373 1.034-3.175 0.312-0.205-0.185-0.115-0.151-0.375 0.087-0.402 0.368-0.942 0.453-1.305 0.453-0.236 0-0.397-0.037-0.394-0.053m0.767-0.726c-0.01 0.04-0.12 0.364-0.067 0.356 0.011-2e-3 0.532-0.592 1.312-0.686 0.099-0.012-0.223-0.25-0.521-0.25h-0.027c-0.418 0.021-0.603 0.208-0.697 0.58m3.244-0.308c-0.346 0.281-0.517 0.323-0.548 0.373 0.229 0.022 0.458 0.03 0.685-0.013 0.187-0.034 0.377-0.099 0.555-0.164 5e-3 -2e-3 0.021-5e-3 0.025-8e-3 0-4e-3 -7e-3 -0.022-8e-3 -0.026-0.067-0.118-0.168-0.207-0.302-0.244l-0.075-0.019 2e-3 -1e-3c-0.013-1e-3 -0.027-2e-3 -0.04-2e-3 -0.105 0-0.205 0.034-0.294 0.104m-0.11 0.063c3e-3 1e-3 3e-3 -1e-3 6e-3 -3e-3 -2e-3 1e-3 -4e-3 3e-3 -6e-3 3e-3m-3.911-2.187c1.063 0.351 0.794 1.448 1.875 1.521 0.078 5e-3 -0.461-0.375-0.596-0.931-0.059-0.247-0.032-0.202 0.19-0.073 0.054 0.031 0.456 0.318 0.452 0.284-0.113-0.828-0.924-0.762-1.067-1.939-0.016-0.127 0.809 0.312 0.902 0.386 0.038-0.078-0.454-1.016-0.534-1.22-0.127-0.323-0.378-0.734-0.139-1.161 0.034-0.062 0.126 0.221 0.824 0.542 0.489 0.225 0.825 0.771 0.812 0.782 0.05-0.045-0.053-0.759 0.268-1.143 0.774 0.72 0.713 1.024 0.79 0.961 0.319-0.267 0.473-0.512 0.329-1.171-0.133 0.47-0.37 0.733-0.397 0.683-0.014-0.027-0.03-0.055-0.048-0.085-5e-3 -8e-3 -0.011-0.017-0.017-0.028-0.17-0.274-0.455-0.62-0.603-0.814-0.095-0.125-0.034-0.291-0.165-0.18-0.522 0.439-0.379 0.733-0.456 0.753-0.028 7e-3 -0.488-0.352-0.567-0.413-0.818-0.632-1.021-1.343-1.071-1.583-4e-3 -0.023-0.028-0.02-0.042-2e-3 -0.796 1.068-0.549 1.997-0.088 2.847 0.12 0.223 0.016 0.196-0.089 0.105-0.186-0.159-0.681-0.359-0.632-0.284 0.416 0.623 0.077 1.237 0.862 2.106-0.074 2e-3 -0.299-1e-3 -0.38-5e-3 -0.036-1e-3 -0.113-0.01-0.19-0.01-0.1 0-0.202 0.014-0.223 0.072m3.139 0.121c0.101 0.148 0.077 0.265 0.071 0.454-0.012 0.356 0.555 0.832 0.604 0.788 0.012-0.011-0.279-0.333-0.28-0.695-2e-3 -0.289-4e-3 -0.543-0.117-0.814-0.258-0.618-0.062-0.729-0.094-0.799-0.014-0.03-0.021-0.036-0.056-0.037h-1e-3c-0.063 0-0.746 0.203-0.127 1.103m7.859 2.084c-0.347-0.456-0.433-1.006-0.618-1.534-0.221-0.633-0.709-1.094-1.135-1.592-0.22-0.259-0.561-0.659-0.778-0.919 0.372-0.313 0.491-0.5 0.526-0.826 0.779-0.082 0.989-0.872 1.019-0.843 0.317 0.314 0.224 1.058 0.25 1.065 0.103 0.028 0.255-0.651 0.361-0.663 0.117-0.014 0.238 0.572 0.256 0.674 0.082 0.441 0.018 0.902 0.263 1.307 0.16 0.264 0.375 0.235 0.637 0.157 0.227-0.067 0.793-0.237 1.203 0.447 0.074 0.124 0.309 0.51 0.273 0.6-0.019 0.02-0.126-0.027-0.23-0.074-0.102-0.045-0.202-0.091-0.215-0.074-0.252 0.298-0.485 0.257-0.658 0.215-0.079-0.02-0.146-0.038-0.196-0.025-0.188 0.05-0.176 0.281-0.098 0.424 0.185 0.345 0.667 0.227 0.972 0.369 0.185 0.086 0.223 0.244 0.362 0.36 0.136 0.113 0.305 0.034 0.442-6e-3 0.084-0.025 0.081-1e-3 0.083 0.039 2e-3 0.051-0.129 0.291-0.353 0.421-0.682 0.394-1.224 0.038-1.41-0.139-0.046-0.044-0.074 0.12 0.014 0.284 0.087 0.162 0.286 0.323 0.687 0.287 0.033 0.024 0.087 0.207 0.222 0.292 0.13 0.082 0.334 0.048 0.33 0.077-0.035 0.234-0.361 0.232-0.541 0.231-0.051-1e-3 -0.091-1e-3 -0.109 3e-3 -0.129 0.038-0.253 0.054-0.371 0.054-0.604 0-1.048-0.427-1.188-0.611m-1.636-4.369c-0.129 0.172-0.236 0.452-0.184 0.51 1.21 1.354 1.538 2.081 1.549 1.997-0.082-0.553-0.412-1.156-0.724-1.609-0.445-0.642-0.378-1.035-0.416-1.054-7e-3 -3e-3 -0.016-6e-3 -0.024-6e-3 -0.07 0-0.166 0.115-0.201 0.162m-13.638 3.135c-0.559-0.654-0.493-1.694-0.023-2.184 0.075-0.077 0.194-0.165 0.141-0.238-0.036-0.05-0.823-0.138-0.912-0.953-0.066-0.607 0.446-1.271 0.568-1.271 0.08 0 0.12 0.456 0.392 0.687 0.335 0.283 0.896 0.313 1.218-8e-3 0.884-0.881-0.083-3.94-0.318-4.528-0.58 0.756-1.229 0.402-1.424-0.229-0.12-0.392-9e-3 -1.083 0.093-1.036 0.057 0.287 0.436 1.077 1.02 0.162 0.06-0.096 0.218-0.531 0.081-0.514-0.887 0.109-1.072-0.48-1.11-0.698-0.037-0.215 0.127 0.094 0.579 0.11 0.602 0.02 0.665-0.397 0.816-0.917 0.192-0.658 0.876-1.792 2.952-1.385 0.138 0.027 0.153 0.049 0.145 0.201-4e-3 0.088-0.153 1.106-0.289 1.083-2.053-0.333-2.233 1.011-2.335 1.483-0.172 0.792-0.08 2.754 1.398 2.52 0.178-0.028 0.255-0.186 0.27 0.045 0.032 0.476-0.192 0.857-0.713 0.845-0.153-3e-3 -0.248-0.075-0.227-0.02 0.717 1.908 0.704 3.547 0.429 4.501-0.657 2.276 0.348 2.398 0.344 2.581-0.082 0.11-0.863-0.196-1.113-0.451-0.507-0.518-0.573-1.309-0.542-1.398-0.457 1.295 0.179 1.475 4e-3 2.503-0.066 0.393-0.349 0.748-0.426 0.765-8e-3 2e-3 -0.015 3e-3 -0.02 3e-3 -0.092 0 0.187-0.278-0.998-1.659m1.154-2.846c-0.062 0.148-0.202 0.268-0.331 0.422-0.47 0.565-1.332 1.264-0.11 2.78-0.583-2.228 1.091-3.231 1.174-4.181 0.014-0.165-0.11 0.038-0.17 0.105-0.66 0.732-1.214 0.506-1.527 0.28-0.156-0.113-0.252-0.226-0.272-0.22-0.096 0.028 0.073 0.789 0.956 0.762 0.075-1e-3 0.179-0.039 0.242-0.039 0.045 0 0.068 0.021 0.038 0.091m0.469-8.967c0.023 0.01 0.437-0.286 0.709-0.434 0.502-0.271 0.913-0.223 1.161-0.175 0.099 0.019 0.172 0.038 0.215 0.036l3e-3 -1e-3 0.014-7e-3 4e-3 5e-3 3e-3 -1e-3c0.07-0.028 0.135-0.199 0.119-0.277-0.027-0.122-0.343-0.122-0.535-0.12-0.04 0-0.074 0-0.099-1e-3 -1.193 0.048-1.644 0.954-1.594 0.975m6.929 10.98c-0.048-0.124-0.019-0.108 0.016-0.099 0.388 0.108 0.546 0.014 0.785-0.091 0.552-0.243 0.948-0.123 1.152 0.278-0.165 0-0.408-0.32-1.105 0.228-0.114 0.09-0.228 0.131-0.336 0.131-0.214 0-0.402-0.164-0.512-0.447m3.108-3.413-0.057-0.011 0.037-3e-3c-2e-3 -3e-3 -3e-3 -5e-3 -1e-3 -6e-3 0.033-0.057 1.244-0.013 1.781-0.755 0.37-0.51 0.663-1.442 1.481-1.198 0.236 0.07 0.369 0.203 0.443 0.264 9e-3 7e-3 6e-3 0.02-5e-3 0.021-0.146 4e-3 -0.697 0.064-1.052 0.7-0.338 0.609-0.842 1.192-1.605 1.192-0.296-6e-3 -0.9-0.141-1.022-0.204m-0.738-1.925c0.309-0.242 1.429-0.909 1.726-1.311-0.024 0.042-0.354 1.372-0.726 1.855-0.04 0.051-0.366 0.414-0.395 0.404 0.239 0.077 0.647-0.128 0.814-0.288 0.218-0.206 0.295-0.529 0.37-0.809 0.294-1.113 1.262-1.128 1.286-1.079 9e-3 0.019-0.523 0.291-0.485 1.262 0.016 0.43-0.274 0.945-0.688 1.194-0.709 0.426-1.578 0.42-2.259 0.416-0.342-3e-3 -0.636-5e-3 -0.839 0.046 0.546-0.641 0.777-1.362 1.196-1.69m-0.749-0.553c-0.017-0.302-0.119-0.016-0.254 0.137-0.168 0.189-0.994 0.649-0.981 0.602 0.191-0.667 0.02-1.212-0.122-1.488l-2e-3 -3e-3c-0.065-0.125-0.123-0.194-0.139-0.193-0.035 1e-3 -0.297 0.688-1.049 0.96-0.014 5e-3 -0.031-6e-3 -0.03-0.022 0.295-2.205-3.034-2.662-3.156-4.461-0.039-0.581 0.142-1.292 0.085-1.923 0.178-4e-3 0.355-0.018 0.532-0.046 0.098 0.463 0.026 0.911-0.053 1.445-0.267 1.789 2.024 2.317 2.601 3.464-0.758-2.167-2.062-2.087-1.941-3.34 0.022-0.223 0.138-0.957-0.094-1.69 0.07-0.022 0.139-0.047 0.208-0.075 0.186-0.076 0.367-0.167 0.535-0.277 0.13-0.083 0.251-0.178 0.364-0.283h4e-3l0.078-0.08c0.13-0.133 0.247-0.278 0.349-0.435l9e-3 -0.012c0.191 0.293 0.345 0.647 0.422 1.07 0.077-0.306 0.093-0.574 0.064-0.808 0.099 0.098 0.202 0.189 0.31 0.277 0.141 0.114 0.288 0.216 0.444 0.309-0.155 0.406-0.564 0.967-0.601 1.157-0.103 0.52 0.554 0.758 0.917 0.946 0.456 0.239 0.927 0.544 1.172 0.955 0.158 0.268 0.247 0.62 0.169 0.663-0.023 0.011-0.128-0.07-0.294-0.151-0.224-0.111-0.558-0.221-0.948-0.101-0.114 0.034 0.641 0.666-0.179 1.892l0.012-7e-3 -1e-3 -5e-3 0.017-5e-3h5e-3c0.718-0.379 0.897-0.487 0.742-1.493 0.58 0.017 0.865 0.593 0.886 0.539 0.33-0.873-0.078-1.206-0.017-1.206 0.255 0 0.641 0.176 0.821 0.312 0.102 0.077 0.092 0.111 0.137-0.052 0.117-0.437-0.234-0.826-0.169-0.818 1.231 0.157 1.833 0.999 2.361 0.417 0.866-0.952 1.603-0.39 1.769-0.301 0.152-0.728 0.814-0.546 0.867-0.653 0.082-0.163 0.143-0.203 0.13-0.251-0.058-0.202-0.043-0.277 0.129-0.063 0.135 0.169 0.083 0.291 0.163 0.484 0.156 0.381 0.027 0.657-0.17 0.816-0.11 0.089-0.583 0.243-0.647 0.306 0.097 0.095 0.552 0.171 1.036-0.075 0.084-0.042 0.175-5e-3 0.267 0.033 0.078 0.033 0.157 0.065 0.231 0.047 0.189-0.047 0.149-0.295 0.28-0.365 0.03-0.017 0.213 0.304-0.136 0.893-0.054 0.09-0.058 0.195-0.129 0.277-0.228 0.268-0.712 0.256-1.04 0.244-0.138-4e-3 -0.249-9e-3 -0.3 7e-3 3e-3 0.062 0.785 0.252 0.805 0.686 8e-3 0.177 0.112 0.255 0.3 0.265 0.039 3e-3 0.081-4e-3 0.121-0.011 0.102-0.017 0.184-0.034 0.135 0.102-0.115 0.321-0.399 0.3-0.665 0.278-0.076-6e-3 -0.152-0.013-0.22-0.011-1.071 0.03-1.126-0.942-1.629-1.08-0.344-0.093-0.768-0.055-1.013 0.193-0.856 0.863-2.522 1.706-2.849 2.021-0.281 0.272-0.536 0.785-0.639 0.848 0.067-0.428-2e-3 -0.709-0.01-0.861m-0.378-2.303c0.103 0.74-0.634 1.459-0.634 1.459 0.045 0.06 0.709-0.206 1.099-0.585 0.345-0.334 1.91-1.347 2.329-1.523 0.19-0.08 1.072-0.378 1.196-0.405-0.428 0.044-1.356 0.098-1.698 0.168-0.105 0.022-0.135 0.04-0.144-0.051-6e-3 -0.067-0.035-0.173-0.087-0.254-0.087-0.137-0.229-0.28-0.216-0.065 0.018 0.3-0.424 0.939-0.5 0.937-0.039-0.237-0.399-0.731-0.396-0.635 0.03 1.106-0.656 1.446-0.684 1.467-0.01 7e-3 0.063-0.37-0.196-0.717-0.044-0.059-0.07-0.086-0.085-0.086-0.029 0-9e-3 0.109 0.016 0.29m2.854 1.544s0 1e-3 -1e-3 1e-3l1e-3 -1e-3m-2.28-3.811c-0.775-0.54-2.187-0.513-1.836-1.333 0.042-0.097 0.187-0.342 0.315-0.721 0.107 0.045 0.216 0.086 0.326 0.124 0.251 0.084 0.51 0.147 0.771 0.186 0.286 0.043 0.575 0.063 0.864 0.064 0.284 0 0.566-0.028 0.845-0.081 0.279-0.054 0.549-0.135 0.813-0.242 0.063-0.027 0.128-0.055 0.191-0.085v0.341c-0.8 0.403-1.513 0.927-2.068 1.619-0.066 0.082-0.097 0.155-0.154 0.155-0.019 0-0.041-9e-3 -0.067-0.027" fill="url(#linearGradient2968)"/>
  <path transform="matrix(1.3333333,0,0,-1.3333333,0,1341.36)" d="m608.208 164.792h19.532v1.939h-19.532z" fill="url(#linearGradient2973)"/>
  <path transform="matrix(1.3333333,0,0,-1.3333333,811.66453,1120.7489)" d="m0 0v0.604c0 0.046-4e-3 0.075-0.013 0.088s-0.019 0.023-0.031 0.03c-2e-3 1e-3 -5e-3 3e-3 -7e-3 4e-3 -3e-3 1e-3 -5e-3 2e-3 -6e-3 4e-3h0.273c0.082 0 0.151-0.016 0.206-0.047 0.056-0.032 0.084-0.084 0.084-0.157 0-0.055-0.016-0.1-0.048-0.135-0.032-0.036-0.068-0.061-0.107-0.077-6e-3 -2e-3 -0.013-5e-3 -0.019-7e-3 -6e-3 -1e-3 -0.013-3e-3 -0.019-5e-3 5e-3 -6e-3 0.011-0.013 0.016-0.02s0.01-0.013 0.015-0.02c0.015-0.018 0.029-0.036 0.043-0.054 0.015-0.019 0.028-0.037 0.042-0.055 0.041-0.052 0.083-0.1 0.125-0.144s0.089-0.08 0.139-0.106h-0.136c-0.01 0-0.021 0-0.03 1e-3 -0.01 1e-3 -0.02 4e-3 -0.03 7e-3 -0.013 5e-3 -0.027 0.012-0.041 0.023s-0.03 0.026-0.046 0.046l-0.254 0.341c0.02 7e-3 0.039 0.014 0.056 0.021s0.033 0.014 0.046 0.02c0.039 0.017 0.067 0.036 0.085 0.055 0.018 0.02 0.027 0.046 0.027 0.078v0.02c0 0.04-0.013 0.071-0.041 0.093-0.027 0.022-0.066 0.033-0.116 0.033-8e-3 0-0.017-1e-3 -0.026-2e-3 -9e-3 0-0.018-1e-3 -0.027-2e-3 -5e-3 -1e-3 -9e-3 -2e-3 -0.012-2e-3 -4e-3 -1e-3 -8e-3 -1e-3 -0.011-2e-3v-0.623c0-0.025 4e-3 -0.046 0.014-0.065 0.01-0.018 0.024-0.032 0.043-0.042h-0.251c0.019 5e-3 0.033 0.016 0.043 0.033 9e-3 0.018 0.014 0.039 0.014 0.064m0.603 0.253c0 0.02 2e-3 0.041 6e-3 0.063s9e-3 0.045 0.017 0.068c0.022 0.065 0.064 0.125 0.125 0.18s0.15 0.083 0.264 0.083c0.115 0 0.211-0.033 0.289-0.099 0.077-0.066 0.119-0.159 0.125-0.278 0-0.017-2e-3 -0.035-5e-3 -0.053-3e-3 -0.019-6e-3 -0.037-0.011-0.056-0.021-0.071-0.062-0.135-0.125-0.194s-0.148-0.089-0.255-0.089c-0.136 0-0.24 0.036-0.31 0.108-0.071 0.073-0.111 0.161-0.12 0.267m0.139 9e-3c0-0.089 0.03-0.161 0.09-0.216 0.059-0.055 0.126-0.083 0.201-0.083 0.08 0 0.144 0.028 0.191 0.085 0.048 0.057 0.072 0.122 0.072 0.194v0.02c0 5e-3 -1e-3 0.01-1e-3 0.015-1e-3 4e-3 -2e-3 9e-3 -2e-3 0.014-9e-3 0.069-0.039 0.133-0.089 0.19-0.049 0.058-0.115 0.087-0.197 0.087-5e-3 0-0.01 0-0.016-1e-3 -5e-3 0-0.01-1e-3 -0.015-1e-3 -0.059-8e-3 -0.113-0.036-0.162-0.084-0.048-0.048-0.073-0.116-0.073-0.203v-9e-3h1e-3v-4e-3zm0.972-0.272v0.236l-0.201 0.333c-8e-3 0.018-0.02 0.034-0.036 0.048-0.017 0.013-0.036 0.027-0.058 0.04h0.103c0.03 0 0.053-5e-3 0.067-0.014 0.013-9e-3 0.025-0.022 0.035-0.039 3e-3 -3e-3 5e-3 -5e-3 6e-3 -8e-3 2e-3 -3e-3 4e-3 -6e-3 5e-3 -9e-3l0.15-0.255 0.149 0.22c2e-3 3e-3 3e-3 6e-3 4e-3 9e-3 2e-3 3e-3 2e-3 6e-3 2e-3 0.01 1e-3 3e-3 2e-3 6e-3 2e-3 0.01 1e-3 3e-3 1e-3 6e-3 1e-3 8e-3v7e-3c-2e-3 0.014-7e-3 0.028-0.015 0.04s-0.018 0.019-0.03 0.021h0.221l-0.289-0.421v-0.227c0-0.022 4e-3 -0.039 0.013-0.052s0.019-0.024 0.031-0.033c2e-3 -2e-3 5e-3 -4e-3 8e-3 -6e-3s5e-3 -4e-3 8e-3 -5e-3h-0.228c0.018 9e-3 0.03 0.02 0.039 0.034 9e-3 0.013 0.013 0.031 0.013 0.053m0.457 0.034 0.212 0.535c1e-3 2e-3 1e-3 4e-3 2e-3 5e-3v4e-3l3e-3 0.012c1e-3 4e-3 1e-3 8e-3 1e-3 0.01 0 0.012-3e-3 0.021-0.01 0.028-6e-3 8e-3 -0.014 0.014-0.023 0.02h0.175l0.263-0.631c9e-3 -0.018 0.018-0.032 0.027-0.043s0.018-0.022 0.028-0.032c5e-3 -4e-3 0.01-8e-3 0.016-0.013 5e-3 -5e-3 0.01-0.011 0.016-0.016h-0.235c0.011 5e-3 0.019 0.01 0.025 0.016 6e-3 5e-3 0.01 0.012 0.012 0.018 2e-3 3e-3 3e-3 5e-3 3e-3 9e-3 1e-3 3e-3 1e-3 6e-3 1e-3 8e-3 0 6e-3 -1e-3 0.012-3e-3 0.018-1e-3 5e-3 -3e-3 0.011-5e-3 0.017-1e-3 3e-3 -3e-3 6e-3 -4e-3 0.01-1e-3 3e-3 -2e-3 6e-3 -3e-3 8e-3l-0.071 0.176h-0.273l-0.069-0.193c0-2e-3 0-3e-3 -1e-3 -4e-3 0-1e-3 -1e-3 -3e-3 -2e-3 -5e-3v-2e-3c-1e-3 -4e-3 -3e-3 -8e-3 -3e-3 -0.011-1e-3 -3e-3 -2e-3 -6e-3 -2e-3 -9e-3 0-8e-3 2e-3 -0.015 7e-3 -0.021 4e-3 -5e-3 9e-3 -0.011 0.014-0.016 2e-3 -2e-3 4e-3 -4e-3 7e-3 -6e-3s6e-3 -5e-3 8e-3 -7e-3c1e-3 -2e-3 2e-3 -3e-3 3e-3 -4e-3s2e-3 -1e-3 3e-3 -2e-3h-0.217c3e-3 2e-3 6e-3 5e-3 9e-3 7e-3 4e-3 3e-3 7e-3 5e-3 0.01 7e-3 0.024 0.019 0.042 0.038 0.053 0.056 0.012 0.019 0.019 0.036 0.023 0.051m0.185 0.238h0.209l-0.104 0.272zm0.621-0.238v0.518c0 0.023-2e-3 0.039-6e-3 0.048-3e-3 8e-3 -8e-3 0.016-0.014 0.022-4e-3 4e-3 -8e-3 7e-3 -0.011 0.011-4e-3 4e-3 -8e-3 9e-3 -0.013 0.015h0.217c0-1e-3 -1e-3 -1e-3 -3e-3 -2e-3l-3e-3 -3e-3c-2e-3 -2e-3 -5e-3 -4e-3 -7e-3 -6e-3 -3e-3 -2e-3 -5e-3 -4e-3 -7e-3 -6e-3 -8e-3 -7e-3 -0.015-0.016-0.021-0.029-7e-3 -0.013-0.01-0.032-0.01-0.058v-0.535c9e-3 -1e-3 0.017-2e-3 0.026-3e-3 8e-3 -1e-3 0.016-1e-3 0.024-2e-3 0.019-3e-3 0.037-5e-3 0.054-6e-3 0.017-2e-3 0.033-3e-3 0.048-3e-3 0.028 0 0.055 3e-3 0.08 9e-3 0.026 5e-3 0.051 0.015 0.076 0.029 8e-3 4e-3 0.015 8e-3 0.022 0.013 7e-3 4e-3 0.014 9e-3 0.022 0.014l-0.063-0.147h-0.464c8e-3 5e-3 0.014 0.011 0.02 0.016 6e-3 6e-3 0.01 0.011 0.015 0.017 7e-3 0.011 0.012 0.021 0.014 0.033 3e-3 0.011 4e-3 0.021 4e-3 0.03zm1.048 0.259v0.038c1e-3 0.013 2e-3 0.026 4e-3 0.038 0.01 0.095 0.045 0.182 0.106 0.261 0.061 0.08 0.167 0.119 0.317 0.119 0.024 0 0.05-1e-3 0.077-3e-3 0.028-2e-3 0.057-6e-3 0.086-0.01 0.012-2e-3 0.024-4e-3 0.036-7e-3s0.024-6e-3 0.036-8e-3v-0.145c-0.05 0.029-0.096 0.047-0.138 0.055s-0.077 0.012-0.106 0.012c-0.091 0-0.16-0.03-0.205-0.09-0.046-0.059-0.069-0.126-0.069-0.2 0-7e-3 1e-3 -0.015 1e-3 -0.022 1e-3 -7e-3 1e-3 -0.014 2e-3 -0.022 9e-3 -0.075 0.04-0.145 0.094-0.207 0.053-0.063 0.126-0.095 0.218-0.095h5e-3c2e-3 0 4e-3 1e-3 7e-3 2e-3h1e-3 8e-3c2e-3 1e-3 4e-3 1e-3 6e-3 1e-3 0.033 0 0.062 3e-3 0.088 9e-3 0.025 6e-3 0.05 0.014 0.075 0.024 0.011 5e-3 0.023 0.011 0.035 0.016 0.012 6e-3 0.024 0.012 0.037 0.018l-0.049-0.145c-0.022-7e-3 -0.045-0.013-0.069-0.018s-0.048-9e-3 -0.072-0.012c-0.011-1e-3 -0.022-2e-3 -0.032-2e-3s-0.021-1e-3 -0.031-1e-3c-0.113 0-0.217 0.032-0.313 0.096s-0.148 0.163-0.155 0.298m0.825-0.276v0.516c0 8e-3 -1e-3 0.016-3e-3 0.023-1e-3 0.015-5e-3 0.03-0.011 0.045-5e-3 0.014-0.016 0.027-0.031 0.039h0.21c-0.018-9e-3 -0.031-0.023-0.039-0.045-9e-3 -0.021-0.013-0.047-0.013-0.077v-0.167h0.405v0.175c0 5e-3 -1e-3 0.01-1e-3 0.015 0 4e-3 -1e-3 9e-3 -2e-3 0.014-3e-3 0.018-0.01 0.035-0.019 0.051s-0.023 0.027-0.041 0.034h0.229c-2e-3 -3e-3 -4e-3 -5e-3 -6e-3 -8e-3 -2e-3 -2e-3 -4e-3 -4e-3 -7e-3 -6e-3 -1e-3 -2e-3 -3e-3 -3e-3 -4e-3 -4e-3 -1e-3 -2e-3 -3e-3 -3e-3 -4e-3 -5e-3 -8e-3 -8e-3 -0.016-0.018-0.022-0.031-7e-3 -0.013-0.01-0.033-0.01-0.06v-0.509c0-0.026 3e-3 -0.047 0.01-0.062 6e-3 -0.015 0.02-0.029 0.043-0.042h-0.221c0.018 6e-3 0.031 0.016 0.039 0.029 7e-3 0.013 0.012 0.027 0.014 0.042 0 4e-3 1e-3 8e-3 1e-3 0.012s1e-3 9e-3 1e-3 0.013v0.254h-0.405v-0.246c0-0.022 4e-3 -0.042 0.013-0.059 8e-3 -0.017 0.021-0.032 0.039-0.045h-0.218c0.018 9e-3 0.031 0.023 0.04 0.042 8e-3 0.019 0.013 0.04 0.013 0.062m0.82 0.017 0.212 0.535c0 2e-3 1e-3 4e-3 1e-3 5e-3 1e-3 1e-3 1e-3 2e-3 1e-3 4e-3l3e-3 0.012c0 4e-3 1e-3 8e-3 1e-3 0.01 0 0.012-3e-3 0.021-0.01 0.028-7e-3 8e-3 -0.014 0.014-0.023 0.02h0.174l0.263-0.631c9e-3 -0.018 0.018-0.032 0.027-0.043s0.019-0.022 0.029-0.032c5e-3 -4e-3 0.01-8e-3 0.015-0.013s0.011-0.011 0.017-0.016h-0.235c0.011 5e-3 0.019 0.01 0.024 0.016 6e-3 5e-3 0.01 0.012 0.013 0.018 1e-3 3e-3 2e-3 5e-3 3e-3 9e-3v8e-3c0 6e-3 0 0.012-2e-3 0.018-2e-3 5e-3 -3e-3 0.011-5e-3 0.017-2e-3 3e-3 -3e-3 6e-3 -4e-3 0.01-2e-3 3e-3 -3e-3 6e-3 -3e-3 8e-3l-0.072 0.176h-0.273l-0.069-0.193v-4e-3c-1e-3 -1e-3 -1e-3 -3e-3 -2e-3 -5e-3v-2e-3c-2e-3 -4e-3 -3e-3 -8e-3 -4e-3 -0.011s-1e-3 -6e-3 -1e-3 -9e-3c0-8e-3 2e-3 -0.015 6e-3 -0.021 4e-3 -5e-3 9e-3 -0.011 0.015-0.016 2e-3 -2e-3 4e-3 -4e-3 7e-3 -6e-3s5e-3 -5e-3 8e-3 -7e-3c0-2e-3 2e-3 -3e-3 3e-3 -4e-3s2e-3 -1e-3 3e-3 -2e-3h-0.218c4e-3 2e-3 7e-3 5e-3 0.01 7e-3 3e-3 3e-3 7e-3 5e-3 0.01 7e-3 0.024 0.019 0.041 0.038 0.053 0.056 0.011 0.019 0.019 0.036 0.023 0.051m0.185 0.238h0.209l-0.105 0.272zm0.621-0.238v0.518c0 0.023-2e-3 0.039-6e-3 0.048-4e-3 8e-3 -8e-3 0.016-0.014 0.022-4e-3 4e-3 -8e-3 7e-3 -0.012 0.011-3e-3 4e-3 -8e-3 9e-3 -0.013 0.015h0.218c-1e-3 -1e-3 -2e-3 -1e-3 -3e-3 -2e-3l-3e-3 -3e-3c-2e-3 -2e-3 -5e-3 -4e-3 -7e-3 -6e-3 -3e-3 -2e-3 -5e-3 -4e-3 -8e-3 -6e-3 -7e-3 -7e-3 -0.014-0.016-0.021-0.029-6e-3 -0.013-0.01-0.032-0.01-0.058v-0.535c9e-3 -1e-3 0.018-2e-3 0.026-3e-3s0.017-1e-3 0.025-2e-3c0.019-3e-3 0.037-5e-3 0.053-6e-3 0.017-2e-3 0.033-3e-3 0.049-3e-3 0.028 0 0.054 3e-3 0.08 9e-3 0.025 5e-3 0.051 0.015 0.076 0.029 8e-3 4e-3 0.015 8e-3 0.022 0.013 7e-3 4e-3 0.014 9e-3 0.021 0.014l-0.063-0.147h-0.463c7e-3 5e-3 0.014 0.011 0.019 0.016 6e-3 6e-3 0.011 0.011 0.015 0.017 8e-3 0.011 0.013 0.021 0.015 0.033 2e-3 0.011 4e-3 0.021 4e-3 0.03zm0.607 0v0.518c0 0.023-2e-3 0.039-5e-3 0.048-4e-3 8e-3 -9e-3 0.016-0.014 0.022-5e-3 4e-3 -8e-3 7e-3 -0.012 0.011s-8e-3 9e-3 -0.013 0.015h0.218c-1e-3 -1e-3 -2e-3 -1e-3 -3e-3 -2e-3 -2e-3 -1e-3 -3e-3 -2e-3 -4e-3 -3e-3 -2e-3 -2e-3 -4e-3 -4e-3 -7e-3 -6e-3 -2e-3 -2e-3 -5e-3 -4e-3 -7e-3 -6e-3 -8e-3 -7e-3 -0.015-0.016-0.021-0.029-7e-3 -0.013-0.01-0.032-0.01-0.058v-0.535c9e-3 -1e-3 0.018-2e-3 0.026-3e-3s0.016-1e-3 0.024-2e-3c0.019-3e-3 0.037-5e-3 0.054-6e-3 0.017-2e-3 0.033-3e-3 0.048-3e-3 0.028 0 0.055 3e-3 0.08 9e-3 0.026 5e-3 0.051 0.015 0.077 0.029 7e-3 4e-3 0.014 8e-3 0.021 0.013 7e-3 4e-3 0.014 9e-3 0.022 0.014l-0.063-0.147h-0.464c8e-3 5e-3 0.014 0.011 0.02 0.016 6e-3 6e-3 0.011 0.011 0.015 0.017 7e-3 0.011 0.012 0.021 0.015 0.033 2e-3 0.011 3e-3 0.021 3e-3 0.03zm0.616-0.025v0.524c0 0.018-2e-3 0.037-7e-3 0.055-5e-3 0.019-0.017 0.036-0.037 0.052h0.372c5e-3 0 9e-3 0 0.014 1e-3 4e-3 1e-3 9e-3 1e-3 0.013 2e-3 5e-3 1e-3 9e-3 3e-3 0.013 5e-3v-0.139c-0.015 0.019-0.037 0.031-0.065 0.037s-0.06 9e-3 -0.096 9e-3h-0.036c-0.013 0-0.025-1e-3 -0.038-2e-3h-0.01c-3e-3 -1e-3 -6e-3 -1e-3 -0.01-1e-3v-0.201h0.106c0.018 0 0.034 0 0.047 1e-3s0.024 3e-3 0.032 7e-3v-0.123c-8e-3 0.014-0.022 0.024-0.042 0.028-0.02 5e-3 -0.04 8e-3 -0.063 8e-3h-0.08v-0.263c7e-3 -1e-3 0.013-2e-3 0.02-3e-3 6e-3 -2e-3 0.012-3e-3 0.019-3e-3 9e-3 -2e-3 0.019-4e-3 0.029-5e-3s0.02-2e-3 0.03-4e-3c9e-3 -1e-3 0.019-2e-3 0.029-3e-3 0.01 0 0.02-1e-3 0.03-1e-3 0.012 0 0.024 1e-3 0.037 2e-3 0.012 1e-3 0.024 3e-3 0.037 6e-3 0.022 5e-3 0.045 0.012 0.066 0.022 0.022 0.011 0.043 0.024 0.064 0.04l-0.063-0.147h-0.455c8e-3 8e-3 0.015 0.016 0.021 0.022 6e-3 7e-3 0.01 0.015 0.014 0.022 3e-3 8e-3 5e-3 0.016 7e-3 0.025 2e-3 8e-3 2e-3 0.017 2e-3 0.027m0.605 8e-3v0.501c0 0.037-4e-3 0.063-0.013 0.079s-0.019 0.028-0.031 0.035c-3e-3 3e-3 -6e-3 5e-3 -0.01 7e-3 -3e-3 2e-3 -6e-3 4e-3 -0.01 5e-3 0 0-1e-3 1e-3 -3e-3 2e-3 -1e-3 1e-3 -2e-3 1e-3 -3e-3 2e-3h0.166l0.448-0.571v0.449c0 0.036-6e-3 0.064-0.018 0.085-0.013 0.021-0.029 0.033-0.051 0.037h0.218c-4e-3 -3e-3 -8e-3 -6e-3 -0.012-8e-3 -5e-3 -3e-3 -9e-3 -5e-3 -0.013-7e-3 -0.011-6e-3 -0.021-0.015-0.029-0.027-7e-3 -0.011-0.013-0.035-0.016-0.071v-0.658c-8e-3 1e-3 -0.016 3e-3 -0.025 7e-3 -0.01 4e-3 -0.019 9e-3 -0.029 0.015-9e-3 5e-3 -0.018 0.011-0.027 0.017-8e-3 7e-3 -0.016 0.014-0.024 0.02-3e-3 3e-3 -6e-3 7e-3 -9e-3 0.01s-6e-3 6e-3 -8e-3 0.01l-0.422 0.536v-0.466c0-0.03 5e-3 -0.054 0.014-0.07 0.01-0.016 0.025-0.03 0.046-0.043h-0.209c4e-3 2e-3 8e-3 5e-3 0.012 7e-3 4e-3 3e-3 7e-3 5e-3 0.011 7e-3 0.012 9e-3 0.022 0.02 0.03 0.032s0.014 0.031 0.017 0.058m0.727 0.255c0.013 0.138 0.064 0.236 0.153 0.293s0.191 0.086 0.305 0.086c0.015 0 0.032-1e-3 0.048-2e-3 0.017-1e-3 0.034-3e-3 0.05-5e-3 0.015-2e-3 0.029-4e-3 0.043-6e-3s0.028-5e-3 0.041-7e-3v-0.13c-0.021 0.017-0.044 0.031-0.069 0.041-0.025 0.011-0.051 0.018-0.078 0.023-8e-3 0-0.016 1e-3 -0.024 2e-3s-0.017 1e-3 -0.025 1e-3h-7e-3c-0.075-1e-3 -0.143-0.028-0.206-0.078-0.063-0.051-0.094-0.12-0.094-0.207v-5e-3c1e-3 -2e-3 1e-3 -3e-3 1e-3 -5e-3s0-3e-3 1e-3 -5e-3v-5e-3c7e-3 -0.092 0.035-0.16 0.085-0.204 0.05-0.043 0.104-0.071 0.162-0.084 0.015-3e-3 0.03-5e-3 0.044-6e-3 0.014-2e-3 0.029-2e-3 0.043-2e-3h7e-3c0.019 1e-3 0.037 3e-3 0.056 6e-3 0.018 3e-3 0.035 7e-3 0.048 0.011 5e-3 1e-3 8e-3 2e-3 0.012 3e-3 3e-3 1e-3 6e-3 2e-3 9e-3 3e-3v0.166c0 0.031-3e-3 0.057-9e-3 0.076-7e-3 0.019-0.021 0.035-0.044 0.048h0.175c-1e-3 -1e-3 -1e-3 -3e-3 -2e-3 -4e-3 0-1e-3 -1e-3 -2e-3 -2e-3 -3e-3 -2e-3 -7e-3 -3e-3 -0.015-4e-3 -0.025v-0.046-0.229c0-8e-3 0-0.017 1e-3 -0.025 1e-3 -9e-3 3e-3 -0.018 7e-3 -0.027-0.026-7e-3 -0.054-0.013-0.082-0.018-0.029-5e-3 -0.058-9e-3 -0.086-0.011-0.013-2e-3 -0.027-3e-3 -0.04-3e-3 -0.013-1e-3 -0.026-1e-3 -0.038-1e-3 -0.12 0-0.23 0.029-0.329 0.087-0.1 0.059-0.15 0.157-0.152 0.297m0.851-0.263v0.524c0 0.018-2e-3 0.037-7e-3 0.055-5e-3 0.019-0.017 0.036-0.037 0.052h0.372c5e-3 0 9e-3 0 0.014 1e-3 4e-3 1e-3 9e-3 1e-3 0.013 2e-3 5e-3 1e-3 9e-3 3e-3 0.013 5e-3v-0.139c-0.016 0.019-0.037 0.031-0.065 0.037s-0.06 9e-3 -0.096 9e-3h-0.036c-0.013 0-0.026-1e-3 -0.038-2e-3h-0.01c-3e-3 -1e-3 -6e-3 -1e-3 -0.01-1e-3v-0.201h0.106c0.018 0 0.034 0 0.047 1e-3s0.024 3e-3 0.032 7e-3v-0.123c-8e-3 0.014-0.022 0.024-0.042 0.028-0.02 5e-3 -0.04 8e-3 -0.063 8e-3h-0.08v-0.263c7e-3 -1e-3 0.013-2e-3 0.02-3e-3 6e-3 -2e-3 0.012-3e-3 0.019-3e-3 9e-3 -2e-3 0.019-4e-3 0.029-5e-3s0.02-2e-3 0.03-4e-3c0.01-1e-3 0.019-2e-3 0.029-3e-3 0.01 0 0.02-1e-3 0.03-1e-3 0.012 0 0.024 1e-3 0.037 2e-3 0.012 1e-3 0.024 3e-3 0.036 6e-3 0.023 5e-3 0.046 0.012 0.067 0.022 0.022 0.011 0.043 0.024 0.064 0.04l-0.063-0.147h-0.455c8e-3 8e-3 0.015 0.016 0.021 0.022 6e-3 7e-3 0.01 0.015 0.014 0.022 3e-3 8e-3 5e-3 0.016 7e-3 0.025 2e-3 8e-3 2e-3 0.017 2e-3 0.027m0.589-9e-3v0.544c0 0.041-3e-3 0.067-0.011 0.079s-0.017 0.021-0.028 0.026c-2e-3 2e-3 -5e-3 3e-3 -7e-3 4e-3s-4e-3 2e-3 -5e-3 4e-3h0.246c0.074 0 0.135-0.014 0.186-0.043 0.049-0.028 0.075-0.075 0.075-0.14 0-0.05-0.015-0.09-0.044-0.122-0.028-0.032-0.06-0.055-0.095-0.069-6e-3 -3e-3 -0.012-5e-3 -0.018-6e-3 -5e-3 -2e-3 -0.011-4e-3 -0.017-5e-3 5e-3 -6e-3 0.01-0.012 0.014-0.018 5e-3 -6e-3 9e-3 -0.012 0.014-0.018 0.013-0.016 0.026-0.033 0.039-0.049s0.025-0.033 0.038-0.049c0.037-0.047 0.074-0.09 0.112-0.13s0.08-0.072 0.125-0.095h-0.122c-0.01 0-0.019 0-0.027 1e-3 -9e-3 1e-3 -0.018 3e-3 -0.027 6e-3 -0.012 4e-3 -0.025 0.011-0.037 0.021-0.013 0.01-0.027 0.023-0.042 0.041l-0.228 0.307c0.018 7e-3 0.034 0.013 0.05 0.019s0.03 0.012 0.042 0.018c0.034 0.016 0.06 0.032 0.076 0.05 0.017 0.017 0.025 0.041 0.025 0.069v0.019c0 0.036-0.013 0.064-0.037 0.083-0.025 0.02-0.06 0.03-0.105 0.03-7e-3 0-0.015-1e-3 -0.023-1e-3 -8e-3 -1e-3 -0.016-2e-3 -0.025-3e-3 -4e-3 -1e-3 -7e-3 -1e-3 -0.011-2e-3 -3e-3 0-6e-3 -1e-3 -0.01-2e-3v-0.56c0-0.023 5e-3 -0.042 0.013-0.058 9e-3 -0.017 0.022-0.029 0.039-0.038h-0.226c0.017 4e-3 0.03 0.014 0.039 0.03 8e-3 0.016 0.012 0.035 0.012 0.057m0.556 0.454c0 0.074 0.027 0.128 0.081 0.162 0.054 0.033 0.114 0.049 0.18 0.049h0.028c0.01 0 0.022 0 0.035-1e-3 0.014-1e-3 0.028-2e-3 0.043-4e-3 0.017-2e-3 0.034-5e-3 0.05-8e-3s0.029-8e-3 0.038-0.012v-0.122c0 1e-3 -1e-3 1e-3 -2e-3 2e-3 -1e-3 0-2e-3 1e-3 -3e-3 1e-3 -0.015 0.012-0.035 0.023-0.059 0.033-0.023 0.01-0.048 0.018-0.072 0.023-0.01 1e-3 -0.019 3e-3 -0.028 4e-3s-0.019 2e-3 -0.027 2e-3c-0.026 0-0.049-5e-3 -0.071-0.015s-0.04-0.026-0.054-0.05c0-2e-3 -1e-3 -4e-3 -2e-3 -6e-3s-2e-3 -4e-3 -3e-3 -7e-3v-2e-3c-1e-3 -1e-3 -1e-3 -2e-3 -2e-3 -2e-3 -1e-3 -4e-3 -2e-3 -7e-3 -3e-3 -0.01 0-4e-3 -1e-3 -6e-3 -1e-3 -9e-3 0-0.024 0.013-0.048 0.039-0.069 0.026-0.022 0.055-0.04 0.088-0.054l0.122-0.061c8e-3 -4e-3 0.017-9e-3 0.027-0.015s0.02-0.012 0.03-0.02c0.023-0.015 0.044-0.035 0.063-0.059 0.019-0.025 0.028-0.052 0.028-0.082 0-0.073-0.03-0.13-0.091-0.171s-0.135-0.062-0.222-0.062c-0.022 0-0.045 2e-3 -0.068 5e-3 -0.024 3e-3 -0.047 7e-3 -0.07 0.013-0.01 2e-3 -0.019 4e-3 -0.029 6e-3 -9e-3 2e-3 -0.018 5e-3 -0.027 8e-3l-0.026 0.139c0.019-0.016 0.038-0.03 0.059-0.042 0.021-0.011 0.042-0.02 0.064-0.028 0.018-6e-3 0.036-0.011 0.054-0.014s0.035-4e-3 0.051-4e-3c0.041 0 0.077 8e-3 0.109 0.024s0.05 0.037 0.056 0.064c2e-3 6e-3 3e-3 0.012 3e-3 0.017v0.014c0 0.016-4e-3 0.03-0.012 0.044-8e-3 0.013-0.019 0.027-0.035 0.04-9e-3 7e-3 -0.019 0.014-0.031 0.022-0.011 7e-3 -0.024 0.015-0.038 0.022l-0.124 0.061c-7e-3 3e-3 -0.013 6e-3 -0.02 0.01-6e-3 3e-3 -0.013 7e-3 -0.019 0.011-0.026 0.016-0.049 0.037-0.071 0.062-0.022 0.026-0.034 0.056-0.038 0.091" clip-path="url(#clipPath2975)" fill="#264288"/>
  <path transform="matrix(1.3333333,0,0,-1.3333333,827.95013,1120.7361)" d="m0 0v0.604c0 5e-3 0 0.011-1e-3 0.016 0 6e-3 -1e-3 0.011-2e-3 0.017-2e-3 0.014-6e-3 0.028-0.013 0.042-8e-3 0.014-0.019 0.024-0.033 0.032h0.292c0.079 0 0.142-0.018 0.19-0.054 0.049-0.035 0.073-0.082 0.073-0.141 0-0.034-0.011-0.066-0.033-0.097-0.022-0.03-0.05-0.05-0.083-0.06 7e-3 -2e-3 0.014-5e-3 0.022-8e-3l0.024-9e-3c0.037-0.016 0.072-0.039 0.102-0.069 0.031-0.031 0.047-0.077 0.047-0.138-3e-3 -0.067-0.023-0.118-0.06-0.151-0.038-0.034-0.079-0.058-0.123-0.071-0.026-8e-3 -0.051-0.013-0.075-0.016-0.025-2e-3 -0.046-4e-3 -0.063-4e-3h-0.313c3e-3 3e-3 7e-3 6e-3 0.01 9e-3 3e-3 2e-3 7e-3 5e-3 0.01 8e-3 0.011 0.011 0.019 0.023 0.023 0.035 4e-3 0.013 6e-3 0.031 6e-3 0.055m0.135-0.01c6e-3 0 0.011-1e-3 0.016-2e-3 5e-3 0 0.01-1e-3 0.016-2e-3 0.015-2e-3 0.03-3e-3 0.046-4e-3 0.015-2e-3 0.029-2e-3 0.043-2e-3 0.051 0 0.095 9e-3 0.129 0.029 0.035 0.019 0.052 0.056 0.052 0.109v0.017c0 0.043-0.017 0.08-0.05 0.112-0.034 0.032-0.095 0.048-0.185 0.048-4e-3 0-9e-3 0-0.015-1e-3h-0.016c-6e-3 0-0.011 0-0.017-1e-3 -6e-3 0-0.012-1e-3 -0.019-1e-3zm0 0.39c3e-3 0 6e-3 0 0.01-1e-3 4e-3 0 7e-3 -1e-3 0.011-1e-3h6e-3c2e-3 -1e-3 4e-3 -1e-3 6e-3 -1e-3h0.024c4e-3 0 8e-3 1e-3 0.013 1e-3 0.039 2e-3 0.075 0.011 0.107 0.026 0.031 0.016 0.047 0.042 0.047 0.08v0.022c-9e-3 0.059-0.031 0.093-0.067 0.103-0.035 9e-3 -0.087 0.014-0.157 0.014zm0.623-0.391v0.524c0 0.019-2e-3 0.037-7e-3 0.056-5e-3 0.018-0.017 0.035-0.037 0.051h0.372c5e-3 0 9e-3 0 0.014 1e-3 4e-3 1e-3 9e-3 2e-3 0.013 3e-3 5e-3 1e-3 9e-3 2e-3 0.013 5e-3v-0.139c-0.015 0.018-0.037 0.031-0.065 0.037-0.028 5e-3 -0.06 8e-3 -0.096 8e-3h-0.036c-0.013 0-0.025 0-0.038-1e-3 -3e-3 0-6e-3 0-0.01-1e-3h-9e-3v-0.202h0.105c0.018 0 0.034 0 0.047 1e-3s0.024 3e-3 0.032 8e-3v-0.123c-8e-3 0.013-0.022 0.023-0.042 0.028-0.019 5e-3 -0.04 7e-3 -0.063 7e-3h-0.079v-0.263c6e-3 -1e-3 0.013-2e-3 0.019-3e-3s0.012-2e-3 0.019-3e-3c9e-3 -2e-3 0.019-3e-3 0.029-4e-3 0.01-2e-3 0.02-3e-3 0.03-5e-3 0.01-1e-3 0.019-1e-3 0.029-2e-3s0.02-1e-3 0.03-1e-3c0.012 0 0.024 0 0.037 1e-3 0.012 2e-3 0.024 3e-3 0.037 6e-3 0.023 5e-3 0.045 0.013 0.067 0.023 0.021 0.01 0.042 0.023 0.063 0.04l-0.063-0.148h-0.455c8e-3 8e-3 0.015 0.016 0.021 0.023s0.01 0.014 0.014 0.021c3e-3 9e-3 5e-3 0.017 7e-3 0.025s2e-3 0.017 2e-3 0.027m0.606 9e-3v0.5c0 0.037-5e-3 0.064-0.014 0.08s-0.019 0.027-0.031 0.035c-3e-3 2e-3 -6e-3 4e-3 -0.01 6e-3l-9e-3 6e-3c-1e-3 0-2e-3 0-3e-3 1e-3 -2e-3 1e-3 -3e-3 2e-3 -4e-3 3e-3h0.166l0.448-0.571v0.449c0 0.035-6e-3 0.063-0.018 0.084-0.013 0.021-0.029 0.034-0.051 0.038h0.218c-4e-3 -4e-3 -8e-3 -7e-3 -0.012-9e-3 -5e-3 -2e-3 -9e-3 -5e-3 -0.013-6e-3 -0.011-7e-3 -0.021-0.016-0.029-0.027-7e-3 -0.012-0.013-0.035-0.016-0.072v-0.658c-8e-3 1e-3 -0.016 4e-3 -0.025 7e-3 -0.01 4e-3 -0.019 9e-3 -0.029 0.016-9e-3 4e-3 -0.018 0.01-0.027 0.017-8e-3 6e-3 -0.016 0.013-0.024 0.019-3e-3 4e-3 -6e-3 7e-3 -9e-3 0.01-3e-3 4e-3 -5e-3 7e-3 -8e-3 0.01l-0.422 0.536v-0.466c0-0.03 5e-3 -0.053 0.014-0.069 0.01-0.016 0.025-0.031 0.047-0.044h-0.21c4e-3 3e-3 8e-3 5e-3 0.012 8e-3 4e-3 2e-3 7e-3 4e-3 0.011 7e-3 0.012 9e-3 0.022 0.019 0.03 0.031s0.014 0.032 0.018 0.059m0.726 0.254c0.014 0.139 0.064 0.237 0.153 0.294s0.191 0.085 0.305 0.085c0.015 0 0.032-1e-3 0.048-2e-3 0.017-1e-3 0.034-2e-3 0.05-4e-3 0.015-3e-3 0.029-5e-3 0.043-7e-3s0.028-4e-3 0.041-7e-3v-0.13c-0.021 0.017-0.044 0.031-0.069 0.042-0.025 0.01-0.051 0.018-0.078 0.022-8e-3 1e-3 -0.016 2e-3 -0.024 2e-3 -8e-3 1e-3 -0.016 2e-3 -0.025 2e-3h-7e-3c-0.075-2e-3 -0.143-0.028-0.206-0.079s-0.094-0.12-0.094-0.207v-5e-3c1e-3 -1e-3 1e-3 -3e-3 1e-3 -5e-3 0-1e-3 0-3e-3 1e-3 -4e-3v-5e-3c7e-3 -0.093 0.035-0.161 0.085-0.205 0.05-0.043 0.104-0.071 0.163-0.083 0.014-3e-3 0.029-6e-3 0.043-7e-3 0.015-1e-3 0.029-2e-3 0.043-2e-3h7e-3c0.019 1e-3 0.037 3e-3 0.056 6e-3 0.018 4e-3 0.035 7e-3 0.049 0.011 4e-3 1e-3 7e-3 2e-3 0.011 4e-3 3e-3 1e-3 6e-3 2e-3 9e-3 3e-3v0.166c0 0.031-3e-3 0.056-9e-3 0.075-7e-3 0.02-0.021 0.036-0.043 0.049h0.174c-1e-3 -2e-3 -1e-3 -3e-3 -2e-3 -4e-3 0-2e-3 -1e-3 -3e-3 -1e-3 -4e-3 -3e-3 -7e-3 -4e-3 -0.015-5e-3 -0.024v-0.047-0.229c0-8e-3 0-0.016 1e-3 -0.025 1e-3 -8e-3 3e-3 -0.017 7e-3 -0.026-0.026-8e-3 -0.054-0.014-0.082-0.019-0.029-5e-3 -0.058-8e-3 -0.086-0.011-0.013-1e-3 -0.027-2e-3 -0.04-3e-3h-0.038c-0.12 0-0.23 0.029-0.329 0.087-0.1 0.058-0.15 0.157-0.152 0.296m0.849-0.237 0.212 0.535c0 2e-3 1e-3 3e-3 1e-3 4e-3 1e-3 1e-3 1e-3 3e-3 1e-3 5e-3 1e-3 4e-3 2e-3 8e-3 2e-3 0.012 1e-3 4e-3 2e-3 7e-3 2e-3 0.01 0 0.011-4e-3 0.021-0.01 0.028-7e-3 7e-3 -0.015 0.014-0.024 0.02h0.175l0.263-0.631c9e-3 -0.018 0.018-0.033 0.027-0.044s0.019-0.022 0.029-0.031c5e-3 -4e-3 0.01-9e-3 0.015-0.014s0.011-0.01 0.017-0.016h-0.235c0.01 5e-3 0.018 0.01 0.024 0.016s0.01 0.012 0.013 0.019c1e-3 2e-3 2e-3 5e-3 3e-3 8e-3v9e-3c0 6e-3 -1e-3 0.011-2e-3 0.017-2e-3 6e-3 -4e-3 0.011-5e-3 0.017-2e-3 3e-3 -3e-3 7e-3 -4e-3 0.01-2e-3 3e-3 -3e-3 6e-3 -3e-3 9e-3l-0.072 0.176h-0.273l-0.069-0.194v-4e-3c-1e-3 -1e-3 -1e-3 -3e-3 -2e-3 -4e-3v-3e-3c-2e-3 -4e-3 -3e-3 -7e-3 -4e-3 -0.011-1e-3 -3e-3 -1e-3 -6e-3 -1e-3 -8e-3 0-8e-3 2e-3 -0.015 6e-3 -0.021s9e-3 -0.011 0.015-0.016c1e-3 -3e-3 4e-3 -5e-3 7e-3 -7e-3 2e-3 -2e-3 5e-3 -4e-3 8e-3 -7e-3 0-1e-3 1e-3 -3e-3 3e-3 -3e-3l3e-3 -3e-3h-0.218c3e-3 3e-3 7e-3 5e-3 0.01 8e-3 3e-3 2e-3 6e-3 4e-3 0.01 7e-3 0.023 0.019 0.041 0.037 0.053 0.056 0.011 0.018 0.019 0.035 0.023 0.051m0.184 0.237h0.21l-0.105 0.272zm0.622-0.237v0.518c0 0.023-2e-3 0.038-6e-3 0.047s-8e-3 0.016-0.014 0.023c-4e-3 3e-3 -8e-3 7e-3 -0.012 0.011s-8e-3 9e-3 -0.013 0.015h0.218l-3e-3 -3e-3c-1e-3 -1e-3 -2e-3 -1e-3 -3e-3 -2e-3 -3e-3 -3e-3 -5e-3 -5e-3 -8e-3 -6e-3 -2e-3 -2e-3 -5e-3 -4e-3 -7e-3 -7e-3 -7e-3 -6e-3 -0.014-0.016-0.021-0.029-6e-3 -0.012-0.01-0.032-0.01-0.058v-0.535c9e-3 -1e-3 0.018-2e-3 0.026-2e-3 8e-3 -1e-3 0.017-2e-3 0.025-3e-3 0.019-2e-3 0.036-4e-3 0.053-6e-3s0.033-3e-3 0.049-3e-3c0.028 0 0.054 3e-3 0.08 9e-3 0.025 6e-3 0.05 0.016 0.076 0.03 7e-3 3e-3 0.015 7e-3 0.021 0.012 7e-3 5e-3 0.015 0.01 0.022 0.015l-0.063-0.148h-0.463c7e-3 6e-3 0.014 0.011 0.019 0.017 6e-3 5e-3 0.011 0.011 0.015 0.016 7e-3 0.011 0.012 0.022 0.015 0.033 2e-3 0.011 4e-3 0.021 4e-3 0.03zm0.589 0.113v0.413c0 0.022-4e-3 0.041-0.012 0.055s-0.018 0.028-0.031 0.041h0.2c-7e-3 -6e-3 -0.013-0.016-0.019-0.029s-0.011-0.027-0.013-0.042c-1e-3 -4e-3 -1e-3 -8e-3 -2e-3 -0.012v-0.013-0.396c0-0.057 0.012-0.099 0.036-0.126 0.025-0.026 0.053-0.044 0.083-0.051 8e-3 -2e-3 0.016-4e-3 0.024-5e-3 9e-3 -1e-3 0.016-1e-3 0.024-1e-3 0.061 0 0.108 0.014 0.142 0.042s0.051 0.063 0.051 0.107v0.396c0 0.035-5e-3 0.062-0.014 0.082-0.01 0.019-0.023 0.035-0.04 0.048h0.211c-0.018-0.017-0.03-0.036-0.035-0.058-6e-3 -0.022-9e-3 -0.046-9e-3 -0.072v-0.509c0-0.027 3e-3 -0.048 0.01-0.066 6e-3 -0.017 0.021-0.03 0.043-0.039h-0.166v0.069l-0.017-0.017c-6e-3 -7e-3 -0.013-0.013-0.021-0.02-0.015-0.012-0.036-0.023-0.062-0.033-0.027-0.01-0.064-0.015-0.11-0.015-0.09 0-0.154 0.02-0.195 0.061-0.04 0.041-0.064 0.086-0.073 0.136-2e-3 9e-3 -3e-3 0.018-4e-3 0.027s-1e-3 0.018-1e-3 0.027m0.772-0.148v0.544c0 0.041-4e-3 0.067-0.012 0.079s-0.017 0.021-0.027 0.027c-3e-3 1e-3 -5e-3 3e-3 -7e-3 3e-3 -2e-3 1e-3 -4e-3 3e-3 -6e-3 4e-3h0.246c0.074 0 0.136-0.014 0.186-0.042 0.05-0.029 0.075-0.075 0.075-0.141 0-0.049-0.014-0.09-0.043-0.122s-0.061-0.055-0.096-0.069c-6e-3 -2e-3 -0.011-4e-3 -0.017-6e-3s-0.012-3e-3 -0.017-5e-3c5e-3 -5e-3 9e-3 -0.011 0.014-0.018 4e-3 -6e-3 9e-3 -0.012 0.014-0.017 0.013-0.017 0.026-0.033 0.039-0.05 0.012-0.016 0.025-0.032 0.037-0.049 0.037-0.047 0.075-0.09 0.113-0.13 0.038-0.039 0.079-0.071 0.124-0.095h-0.121c-0.01 0-0.019 1e-3 -0.028 1e-3 -9e-3 1e-3 -0.017 3e-3 -0.026 7e-3 -0.013 4e-3 -0.025 0.011-0.038 0.02-0.013 0.01-0.026 0.024-0.041 0.041l-0.229 0.307c0.018 7e-3 0.035 0.013 0.051 0.02 0.015 6e-3 0.029 0.012 0.041 0.017 0.035 0.016 0.06 0.033 0.077 0.05 0.016 0.018 0.024 0.041 0.024 0.07v0.018c0 0.036-0.012 0.064-0.037 0.084-0.024 0.019-0.059 0.029-0.104 0.029-8e-3 0-0.015 0-0.024-1e-3 -8e-3 -1e-3 -0.016-2e-3 -0.024-2e-3 -4e-3 -1e-3 -8e-3 -2e-3 -0.011-2e-3 -3e-3 -1e-3 -7e-3 -1e-3 -0.01-2e-3v-0.561c0-0.022 4e-3 -0.041 0.013-0.058 8e-3 -0.016 0.021-0.029 0.039-0.038h-0.227c0.018 4e-3 0.03 0.014 0.039 0.03s0.013 0.035 0.013 0.057m0.599 0.148v0.413c0 0.022-4e-3 0.041-0.012 0.055s-0.018 0.028-0.031 0.041h0.2c-6e-3 -6e-3 -0.013-0.016-0.019-0.029s-0.01-0.027-0.013-0.042c0-4e-3 -1e-3 -8e-3 -2e-3 -0.012v-0.013-0.396c0-0.057 0.012-0.099 0.037-0.126 0.024-0.026 0.052-0.044 0.082-0.051 8e-3 -2e-3 0.017-4e-3 0.025-5e-3s0.016-1e-3 0.023-1e-3c0.061 0 0.108 0.014 0.142 0.042s0.051 0.063 0.051 0.107v0.396c0 0.035-5e-3 0.062-0.014 0.082-9e-3 0.019-0.023 0.035-0.04 0.048h0.212c-0.018-0.017-0.03-0.036-0.036-0.058s-9e-3 -0.046-9e-3 -0.072v-0.509c0-0.027 4e-3 -0.048 0.01-0.066 7e-3 -0.017 0.021-0.03 0.043-0.039h-0.166v0.069c-5e-3 -5e-3 -0.01-0.011-0.016-0.017-7e-3 -7e-3 -0.014-0.013-0.022-0.02-0.015-0.012-0.035-0.023-0.062-0.033s-0.063-0.015-0.11-0.015c-0.089 0-0.154 0.02-0.194 0.061-0.041 0.041-0.065 0.086-0.074 0.136-2e-3 9e-3 -3e-3 0.018-4e-3 0.027s-1e-3 0.018-1e-3 0.027" clip-path="url(#clipPath2977)" fill="#264288"/>
 </g>
</svg>